<svg class="base" viewBox="0 -50 1010.4 900">
	<path style="fill:#EB0900;" d="M924.4,701.8c-0.4-0.6-2.9-0.7-3.1-0.9c-0.2-0.1-0.2-0.5,0.3-0.8c0.6-0.3-0.5-1-1.5-1
		c-1,0-0.7,1.3-0.8,1.7c-0.1,0.4-3.4,0.4-3.4,0.4l-0.2-1.3l1-3.1l-0.9-2.9l-0.4-1.4l-0.9-0.1l-1.8,2l-2.2,2.4l-1.4,2.6l-0.9-0.2
		l-0.2,3.7c-3.1,2-4.3,4.7-4.3,4.7s-1,1.2-1.6,1.2s-1,0.5-1,1.4c-0.1,0.9-0.3,0.9-1.2,0.9c-0.9,0-0.9-0.8-1.9-0.9
		c-1-0.1-1.2-0.1-1.7-1.1s0.9-2.1,0.9-3c0-0.9-1.6-0.6-1.6-0.6s-0.3-1.1,2-1.2s2-2.4,1.8-3.2c-0.2-0.9-1.2,0.4-1.4-0.1
		c-0.2-0.5-1.7-0.9-3.5-0.9c-1.7,0-1.5,0.1-1.6,0.5c-0.1,0.4-1.2-0.4-1.6-1.1c-0.4-0.7-3.7-0.8-4.2-0.6c-0.5,0.2-2.3-1.4-2.6-1.7
		c-0.2-0.4-3.4-0.2-3.9-0.1c-0.4,0.1-0.5-2.5-0.4-4.1c0.1-1.6-1.1-1.3-1.4-2.2s-1.2-1.1-1.6-1.6s-4-0.2-4.7-0.3
		c-0.7-0.1-1.4,2.7-1.7,3.1c-0.4,0.4-1.3,1.2-1.8,1.3c-0.5,0.1,0,1.5-0.5,1.8s-1.1-1.8-2.4-1.8s-1.3-0.5-1.1-1.1s2.8-1.2,3.1-2.1
		c0.2-0.9,0.2-3.4,0.1-4.6c-0.1-1.1,0.9-0.4,1.6-0.7c0.7-0.2,0.6-7.6,0.2-8.7s-3.1,0.4-3.2-0.2c-0.2-0.7-3.3-1.1-3.3-1.1l2-2.5
		c0,0,0.7,1,1.1,0.6c0.4-0.4,2.7-3.4,2.7-3.4s-0.3,0.4,1.2,0.7s2.8-3.9,3-4.9c0.3-1,0.6-1.1,0.5-3c-0.1-1.9-6.6-5.7-6.6-5.7
		c1.2,1.9-1.9,3.4-2.5,5.6c-0.7,2.2,1.9,0.1,1.9,1.2c0.1,1.1,1.6,0.4,1.6,0.7c0,0.3,1.3,1.4,1.3,1.4s-1.2,2.4-2,1.6
		c-0.8-0.8-1.8-0.1-1.8-0.1s-2.1,3.1-2.7,2.8c-0.6-0.3-2.1,2.2-2.6,1.9c-0.5-0.2-2.5-0.7-3-0.7c-0.5,0-2.2,0.6-2.7,0.6
		c-0.6,0,0.2-0.6,0.6-0.9s-1.4-1.4-2.9-1.3c-1.6,0.1,0.1,1.9,0,2.4c-0.1,0.5-1.6,0.6-2.2,0.1c-0.6-0.5-1.1,0.4-1.3,0.6
		s-0.9,0.6-2.2-0.2c-1.2-0.7-3.1,2.2-3.3,2.3c-0.2,0.1-0.4,0-1.7-0.5c-1.2-0.5-3.5,3.1-3.5,3.1s-1,0-2.2-0.3s-1.4,2.2-2.3,2.8
		c-0.9,0.6-0.1,1.9,0.2,2.7c0.3,0.7-0.4,1.1-0.7,1.8c-0.4,0.7-2.3-0.9-2.7-1.2c-0.4-0.3-0.5-1-0.7-1.5c-0.2-0.5-1.7-0.6-3.1-0.6
		s-1.4,0.9-2.7,1.1c-1.4,0.1-1.8-3.2-1.8-3.2l4.6-4.8c2.7,0.5,4.1-1.4,4.1-1.4s0.4,0,2.1,1s4.4,0.2,5.6-0.5c1.2-0.7,0.6-1.7,1.6-1.2
		c1,0.5,1.8,0.4,1.4-1.6s-2.5-4.9-4.9-6.1c-2.4-1.2-5.8-0.5-5.8-0.5c-5.6-2.7-10.1,1.2-10.9,1.9c-0.9,0.7-2.1,1.3-2.6,1.1
		c-0.6-0.2,0.2-1.7,0.8-2.6s3.5-2.2,3.5-2.2c1.4,0.9,4.6,0.4,5.7,0.3c1.1-0.1,1.6-0.8,2.3-1.3c0.7-0.5,2.8-1.5,3.6-2.4
		c0.7-0.9,1.2-4,0.9-4.6c-0.3-0.6-3.2-0.1-3.7-0.1s-1-0.7-1.1-1.1s-0.7-1.1-2.1-1.5c-1.4-0.4-1.4,1.9-2,1.9s-1.6,1-1.7,1.5
		c-0.2,0.5-5,4.5-5,4.5s-1.1,0.3-2.3,1.1c-1.2,0.7-0.6,2.2-0.6,2.2s-3.2,3.4-3.8,4.1c-0.6,0.7,1.2,1.2,1.6,1.2s-3.5,4-4.2,3.6
		c-0.7-0.4-1.9-0.2-2.5-0.7c-0.6-0.4-1.6-0.4-3.1-0.5s-2.1-1.1-1.8-1.5c0.2-0.4-0.4-1.6-1.4-2.6c-1.1-0.9-3.6-2.4-4.9-2.6
		c-1.3-0.1-4.4-0.9-5-0.9s-2.2-1.1-2.2-1.1s-1.2-0.6-1.4-1.7c-0.1-1.1-0.9-0.6-1.1-0.5c-0.2,0.1-0.6,0.4-1.1-0.5
		c-0.5-0.9-1.4-0.2-1.4-0.5c0-0.2-1-1.2-1.9-1.2s-0.9,1.1-0.9,1.1s-0.2-0.6-0.9-0.9c-0.6-0.3-0.7,0.8-1.3,0.9
		c-0.6,0.1-0.4,0.6-0.7,1c-0.3,0.4-1.5,0.4-2.3,0.5c-0.8,0.1-0.1,1.7-0.6,1.7c-0.4,0.1-1.2,2.1-1.6,2.7s0.3,1.2,0.6,1.6
		c0.2,0.4-0.1,1.4,0.2,2c0.4,0.6,1.2,0.6,1.7,0.5c0.6,0,0.7,1.4,0.8,1.7c0.1,0.4,1.4,0.5,2.1,0.5s1.6,0.2,2.1,0.3
		c0.5,0.1,0.9,1.2,0.9,1.5c0,0.2,0.4,1,0.6,1.2s1,0.3,1,0.3s0.7,0.7,1.9,0.6c1.1-0.1,0.5-0.9,0.5-0.9s0.6,0.8,1.4,0.8
		c0.8,0,0.7-0.9,1.1-1.1s0.7-0.1,0.9,0.3c0.2,0.4-0.6,0.9-1.1,0.9s-0.2,2.1,0.4,2.2s1.5-0.9,1.7-1.6c0.2-0.7,0.4-0.9,0.7-1.1
		c0.2-0.1,0.3,0.8,0.3,1.5c0,0.7-1.1,1.5-1.2,2.1c-0.1,0.6,0.6,1.1-0.1,1.6c-0.7,0.5,0.4,3.4,0,2.9c-0.4-0.4-1.1,1.3-1.9,1.9
		c-0.7,0.6-0.1,1.6,0.4,1.9c0.5,0.4,0.2,0.8,0.6,1.4c0.4,0.6,1.1,0.8,0.6,1.6c-0.5,0.8-0.6,1-1.7,1s-2.1,2.9-2.4,2.9
		s-0.4-0.6-0.9-0.6c-0.5,0-0.6,1.2-0.8,1.6c-0.2,0.3-0.6,1.1-0.6,1.5c-0.1,0.4-0.7,0.5-1.4,0s0.2-0.7,0-1.2
		c-0.2-0.5-1.2,0.3-1.2,0.5c0,0.2-1.1-0.4-1.7-0.6c-0.6-0.1-0.6,1.4-1.2,1.1c-0.6-0.3-1.7,0.9-1.7,0.9c0.3-2.1-1.2-1.4-1.1-2.1
		c0.2-0.7,0-2.2-0.1-2.5s0.4-1.1,1.1-2.1c0.6-1,2.6-2.6,2.6-3.2c0-0.6-0.6-1.6-0.3-1.9c0.3-0.3,0.4-0.8,0-1.3
		c-0.4-0.5-2.2,0.6-2.2,0.6s-0.7-0.4-1.2-0.4c-0.5,0-1,0.7-1.9,1.4c-0.9,0.6,0.2,2,0.1,2.3c-0.1,0.3,0.2,1.4,0.3,1.5
		c0.1,0.1-1.2,2.6-1.6,2.8c-0.4,0.2,0.8,1.6,0.6,2.3c-0.2,0.7,0.6,1.6,0.8,1.8c0.2,0.2,0.3,1.7,0,1.7c-0.3-0.1-0.7-0.9-2.6,0.2
		c-1,2.4,2.1,3.2,0,2.9c-2.1-0.2-2.4,1.8-3,1.9s-1.3,1.6-1.5,0.5c-0.2-1-0.8-0.7-1.2-1.2c-0.4-0.5,0.6-1.7,0.6-1.7
		c1.3-2.1,0-2.4,0-2.4s0-0.6-0.4-1.7s-3.6,1.7-3.8,2c-0.2,0.3-0.9,1.1-0.9,2.4s1.1,0.8,1.1,1.3s0.4,0.7,0.9,1.4
		c0.5,0.6-0.1,0.9-0.2,1.2s-0.9-0.4-1.4-0.7c-0.5-0.4-0.7,0.1-1.3,0.1s-0.5-0.6-1.2-1.1c-0.7-0.5-0.9,0.9-1,1.1
		c-0.1,0.2-0.7,1.6-2.2,1.2s0.5-0.4,0-2.9s-0.9-1.7-0.9-1.7s0.4-1.3-0.6-1.8c-1.1-0.5-1.5,1.2-2.1,1.1c-0.6-0.1-0.2-1.2-0.7-1.6
		c-0.4-0.4-0.3-1.6-0.9-1.6s-1.9,1.9-2.2,1.6c-0.3-0.3,0.5-2.1-0.3-2.2c-0.8-0.1-1,0.7-1.3,0.7s-0.9-0.5-1.4-0.6
		c-0.6-0.1-2.3,0.9-2.3,0.9s0.7-2.1-2.1-1.7c-2.9,0.3-1.4,2.8-2.7,3.6c-1.3,0.8-0.6,2.7-0.6,3.4c0.1,0.7,0,1.1-0.9,1.4
		c-0.9,0.3,0.4,1.5,0.7,2.3c0.3,0.8,0.5,2.2-0.9,1.9c-1.4-0.4-1.8,1.2-2.3,1.9c-0.5,0.6-6.6-0.2-7.8-0.7c-1.2-0.5-2.5-1.5-3.9-2.8
		s-1.4-0.1-2.9-0.3c-1.5-0.2-3.1-1.4-3.6-1.7s-1.7-0.1-2.4,0c-0.7,0.1-3.6-0.6-4.5-0.6c-0.9,0-2.1-1.6-2.1-2.6c0-1,0.6-1.7,1.6-2.6
		c1-0.9,1-1.1,1-1.6c0-0.5-2.4-0.6-2.4-0.8c0-0.2-0.1-0.7-0.4-1.6c-0.4-0.9-1.1-1.3-1.2-2.4c-0.1-1.1,1.1-1.6,1.6-2.1
		c0.4-0.5,1.3-1.1,1.7-1.7c0.4-0.6-0.6-1.6-0.9-2.1c-0.4-0.5-1.7-1.2-2.6-1.3c-0.9-0.1-1.2-1.9-1-2.3c0.2-0.4,0.4-0.6,1.3-1.3
		c0.9-0.7,0.3-1.4,0.2-1.9s0.2-0.7,0.6-0.7c0.4-0.1,1.7,0.1,2.8,0.1c1.1,0,1-0.8,1.5-1.1c0.5-0.3,1.4,0,2.1,0.4
		c0.7,0.4,0.6,1.1,1.1,1.6c0.5,0.5,1.1,0.4,1.6,0.4s0.4,0.4,0.7,0.7c0.3,0.3,0.6,0.7,1.3,1c0.7,0.3,1.2-0.1,1.9-0.9
		c0.7-0.8,0.7-0.8,1.4-0.8c0.7,0,0.8,0.6,1.4,1.2c0.6,0.6,0.1,1.2-0.3,1.7c-0.4,0.6-0.9,0.8-1.1,1.5c-0.2,0.7,0.9,2.6,1.9,2.7
		c1,0.1,1.9,0.4,2.5,0.6c0.6,0.2,1.2,2.1,2,2.7c0.7,0.6,1.2,1.9,1.7,2.8c0.5,0.9,1.6,0.8,2.4,0.4c0.8-0.4,0.7,0.8,1.2,1.4
		c0.5,0.6,2.1,1.3,3.3,1.9c1.2,0.6,1.6,0.6,2.4,0.2c0.8-0.4,0-1.6-0.3-2.2c-0.3-0.6-1.6-0.9-2.1-1.2c-0.5-0.3-0.4-0.9-0.9-1.6
		c-0.4-0.7,0-3.1,0-3.9c0-0.8-6.8-4.4-7.8-4.9c-1-0.5-0.2-1.8-0.3-2.7c-0.1-0.9-0.1-2.4,0.2-2.9c0.4-0.4-0.2-3.1,0.1-3.8
		s1-1.2,1-1.8s-0.2-1.4-0.4-1.9c-0.2-0.6-1-1.3-1.7-1.4c-0.7,0-1.7,1.9-1.7,1.9s-0.2-2.6,0-3.6c0.2-1.1-0.7-1-0.9-1.3
		c-0.2-0.3-0.7-1.1-1.3-1.2c-0.6-0.1-1.8-0.1-2.5-0.6c-0.7-0.6-1.3-1.4-2-1.9c-0.7-0.5-2.3,0.1-3.9-0.6c-1.6-0.7-1.9,0.1-2.2,0.2
		c-0.3,0.1-0.9,1.1-0.9,2.2c-0.1,1.1-1.3,0.4-1.6-0.4c-0.2-0.8-1.2-2.4-1.9-2.7c-0.6-0.4-1.6-2.8-1.7-3.3s-1.8-2.2-2.7-2.9
		c-0.9-0.6-1.5-0.1-2.6,0.5c-1.1,0.6-0.6,2.5-0.4,2.9c0.2,0.4-0.7,2.1-1.1,2.6c-0.4,0.5,0.1,1.7,0,2.6c-0.1,0.9,0,3.9,0,3.9
		c-0.7,0.1-3.3,5-3.4,3.7c-0.1-1.2-3.8-4.9-3.7-6.1c0.1-1.2-1.1-3.1-1.6-3.2c-0.5-0.2-2.2-1.4-2.7-2.6s-2.2-2.6-2.3-3.5
		c-0.1-0.9-3.8-0.9-4.2-1.3c-0.4-0.4-1.8-0.4-2-0.7c-0.2-0.3-0.5-1.2-0.6-1.5c-0.1-0.2-1.9-0.4-2.5-0.5s-2.1-0.6-2.1-0.6
		s-0.2-0.9-1.1-1.4c-0.8-0.5-2.4,0.1-2.4,0.1s-0.7-0.6-2.3-0.8c-1.6-0.2-2,0.2-2.4,0c-0.4-0.2-1.4-0.9-2.2-1.3
		c-0.8-0.4-1.6,0-2.1-0.4s-1.5-0.4-2.2-0.7c-0.7-0.3-1.8,0.1-2.2-0.2c-0.4-0.4-2.1,0.2-2.1,0.2l-0.9-0.9c0,0-1.5-0.4-2.6-0.9
		c-1.1-0.5-1.4-1.8-1.9-1.9s-1.1,1.8-2,1.4c-0.9-0.4-2.4,0-2.4,0s-1.6,0.5-2.4,0.2s-1.6-0.4-1.9,0c-0.2,0.4-0.7,1-1.9,1.4
		c-1.2,0.4,0.7,1.2,1,1.4c0.3,0.2,0.7,0.6,1.2,1.4c0.5,0.8,1.4,1.7,1.7,1.7c0.2,0,1.5,0.7,2.5,0.7c1,0.1,1.2-0.8,1.4-1.1
		c0.2-0.3,1.6-0.6,2.1-0.7c0.4-0.1,2.6,0.2,3.1,0.4c0.4,0.2,0.3,1,0.9,1.8s4.9,0.9,6.7,1.4c1.8,0.4,2.6,1.3,2.9,1.6
		c0.3,0.3,0.9-0.2,1.2-0.3c0.3-0.1,0.8,1.2,1.1,1.6c0.2,0.3,0.4,0.5,2.4,1.2c1.9,0.7,2.4-0.5,2.6-0.5c0.2,0,0.7,0.1,1.4,0.7
		c0.7,0.6,1.2,0.4,1.4,0.4c0.2,0,0.6,0.7,1.2,0.7c0.6,0.1,0.7-0.7,0.9-0.7c0.2,0,1.1,0.7,1.2,1.2c0.2,0.4-0.1,1.2-0.1,1.8
		s0.3,1.7,0.7,2.2c0.4,0.5,0.7,0.3,1.4,0.9c0.7,0.6-1.3,0.4-2.1,0.4c-0.7,0-0.4,0.8-0.4,1.1c0,0.3-0.4-0.1-0.9,0
		c-0.5,0.1-1.1,0.6-1.7,1.2c-0.6,0.6,0.4,1.3,0.9,1.8c0.5,0.5,0.4,1.4,0.4,1.4c-1.7-0.5-3.1,1-3.4,1.6c-0.3,0.6-2.2,0.9-2.2,0.9
		s-1.1-0.6-1.6-0.7c-0.5-0.2-1.7-0.2-2.4,0c-0.6,0.2,1,1.2,0.8,1.6c-0.2,0.3-1.1-0.1-1.8,0.4c-0.7,0.4,0.1,1.9,0.2,2.7
		c0.1,0.7,1.3,0.1,2.3-0.1c1-0.2,0.6,0,1.5,1.2c0.9,1.2,3.8-1.2,4.2-1.1c0.4,0.2,1.8,0.2,2.1-0.1c0.3-0.3,1.9,0.4,2.2,0.8
		c0.2,0.4-0.7,1-1.1,1.8c-0.4,0.8-1.4,1.5-1.6,1.7c-0.1,0.2-0.9,1.9-1.6,2.4c-0.7,0.5-0.1,2.2-0.1,2.9c0,0.7-1.2,1-1.6,1.3
		c-0.4,0.3,1,1.7,2.1,2.8c1.1,1.1,2.4-0.7,2.9-1.1c0.5-0.4,1.1,0,1.9-0.1c0.8-0.1,0.1-2.4,0.2-2.6c0.1-0.2-0.1-2.7-0.1-3.4
		s1.7-1,2.5-2.9c0.7-1.9-0.9-1.2-0.4-2.5c0.4-1.2-0.6-1.9-0.4-2.1c0.1-0.2,1.3-0.6,2-0.4c0.7,0.2,2.5-0.8,3.1-0.8s2.2-0.4,2.7-0.4
		c0.6,0,1.2,0.9,1.4,1.2c0.2,0.3,1.1,0,1.5,0s0.1,2.4,0.1,2.5c0,0.1,0.4,2-0.3,1.7c-0.7-0.2-1.7-0.9-2-1.4c-0.3-0.6-1.6-0.2-2.1,0.3
		c-0.5,0.5-0.5,1.4-0.4,1.9c0.1,0.5,1.4,0.6,1.7,0.7c0.4,0.2,0.4,0.2,0.9,1.1s1.5,0.7,1.6,0.9c0.1,0.2,0.7,1.3,1.3,1.5
		s1.5,0.3,2.4,0.4c0.9,0.1,0.8-0.2,1,0c0.2,0.2,0.5,1.6,0,1.9c-0.5,0.2-0.3,2.2-0.8,2.5c-0.4,0.2,0.2,0.9,0.4,1.3
		c0.2,0.4,0.7,0.9,0,1.3c-0.7,0.4-0.6,0.4-0.6,0.6s-0.7,1-0.9,1.3c-0.1,0.3,1.7,1,1.5,1.2c-0.2,0.2-0.6,1.9-0.6,2.4
		c0,0.5,0.1,1.7-1.2,1.7c-1.3-0.1-0.8,0.5-1,0.7c-0.2,0.2-0.4-0.2-1-0.9c-0.6-0.7-0.8-0.1-1-0.4c-0.2-0.4-1.1-0.1-1.3-0.4
		c-0.2-0.2-0.2-1-0.5-1.6c-0.3-0.6-0.9,0.2-1.2,0.2c-0.3-0.1-1.3-0.7-2.2-0.8c-0.9-0.1-0.9,1.4-1.2,1.9c-0.3,0.4-1.1-0.1-2-0.2
		c-0.9-0.1-0.6,1.6-0.8,1.2c-0.2-0.4-0.4-0.7-0.7-1c-0.4-0.3-0.1-0.9,0-1.3s-0.9-0.7-1.2-0.7c-0.4,0-1-0.5-1.3-0.9
		c-0.3-0.4-1.9,0.9-2.2,1.5c-0.4,0.6,0.4,0.9,0.7,1.2c0.4,0.3,0.3,0.5,0.2,1c-0.1,0.5-1.1,1.1-1.2,1.6c-0.1,0.4,0.5,0.4,0.4,1.1
		c-0.1,0.7-0.2,0.3-0.2,1c0,0.7,0.6,0.7,1.3,0.7c0.7-0.1,0.9,0,1,0.7c0.1,0.7-1.2,1.2-2,1.2c-0.8,0-1.3-0.1-2.2-0.1
		s-0.6,1.2-0.6,1.2s-1.4-0.2-1.9-0.8c-0.4-0.7-1.4-0.1-1.6,0c-0.2,0.1-0.4-2.4-0.4-2.9c0-0.5-4.5-0.2-5.1,0
		c-0.6,0.2-0.2,1.6-0.3,2.4c-0.1,0.8-1.8,0.4-2.6,0.4c-0.8,0-1.2-1.1-1.8-1.7c-0.6-0.6-0.7-0.8-0.6-1.4c0.1-0.6-0.9-1.6-1.5-1.8
		c-0.6-0.2-3,1.8-3.2,1.8c-0.2,0-1.9-0.5-1.9-0.9c-0.1-0.4-1.1-1.6-1.1-1.7c0-0.2,0.2-1.1-0.6-1.4c-0.9-0.4-2.4,1.1-2.4,1.1
		s-0.9-0.9-1.4-1.2c-0.5-0.3,0-1.1,0-1.4c0-0.2-1.6-0.6-1.6-0.6s-1-0.9-1.6-0.9c-0.6,0-0.2-2.2,0-2.4c0.2-0.2,1.3-0.2,1.6-0.6
		c0.3-0.3-0.7-0.9-0.7-1.1c0-0.2,1.7,0,0-1.6c-1.7-1.6-2.5-0.5-2.5-0.5l-0.1,8.6c0.2,0.1,0.7,0.5,1.6,1.2c2.6,2.1,0.9,3.7,0.8,3.9
		c-0.1,0.2-1,0.7-0.4,1.6c0.6,0.9,1.1,0.8,2.1,0.3c1-0.5-0.2-1.4,1.4-2.1s2.6,2,2.6,2l0.2,3.5l1.8,3.2c0,0,2.9-0.3,3.9-0.2
		s1.5,2.2,1.5,2.2s3.7-1.9,6.7-1.9c3,0,1.9,5.2,2.5,7c0.7,1.8,6.9,4.5,6.9,4.5c-0.8,1,1,5.2,1.8,5.7c0.9,0.4,3.1,5.6,3.1,5.6
		s-3.9,1.7-4.5,6.3c-0.2,5.6-0.7,8.3-3,13.1c-2.4,4.8-3.3,12.7-3.3,12.7s-5.2,2.4-6.7,6.4c-0.9,5.1,3.7,9.1,6.5,8.9
		c2.8-0.3,1.8-4.6,1.8-4.6c6-1.5,12.4-8.7,12.4-8.7s11.6,2.5,13.5,2.4c1.9-0.2,0.3-3.7,0.3-3.7s11.7-2.4,13.4-3.9
		c1.6-1.5-1.7-7.4-2.5-10c-0.8-2.6,9.7-4.2,12.8-4.8s3.5,0.2,3.3,1.3c-0.2,1.2,1.2,1.2,6.4,1.6c5.3,0.3,6-2.1,5.9-3.1
		c-0.1-1-0.3-1.7,0.2-2.6c0.5-0.9,20.9-16,20.9-16l36.8,0.3c0.1-1,3.9-5.5,4.2-5.7c0.2-0.2,3.8,1,3.8,1s0.8-1.7,1-2s1.4-0.6,1.4-0.6
		c-0.4-0.8-1-2,1-2.9c2-0.9,2.4-2.6,2.5-2.7c0.1-0.2,0.7-1.1,0.8-1.3c0.2-0.3-1-1.8-1.2-2.3c-0.2-0.5,0.5-1.4,0.8-2.2
		c0.3-0.8,0.4-1.7,0.4-2.3c0.1-0.6,1.3-2.8,1.6-3.4c0.3-0.5-0.7-2.3-0.7-2.3c1.4-0.6,6-9.3,6-9.3s3.4-4.9,4.6-5.1
		c1.2-0.2,2.1,4.2,2.7,4.6c0.6,0.4,2.2-0.9,2.6-1.1c0.4-0.2,3.7-0.7,4.2-0.9c0.6-0.3,1-1,1.3-1.1c0.3-0.1,5.4,5.4,5.1,5.7
		c-0.2,0.3,0.3,2.3,0.3,2.7c0,0.4-0.1,1-0.3,1.7c-0.2,0.7,0.2,13.2,0.4,13.9c0.2,0.7,0.8,1.3,1.7,1.4c0.9,0.1,1.8,1.4,0.8,2
		c-1,0.6,0,1.9,0.3,1.9c0.3,0,0.6,0.4,0.6,3.5c0,3.1,3.6,3.2,4.2,4.8c0.6,1.6-0.3,2.7-0.3,3.2c0,0.6,1.4,1.4,1.7,1.9
		c0.3,0.5,0.3,3.2,1.1,3c0.8-0.1,1.1-3.9,1.1-3.9l0.7-0.3c0,0,1,0.2,1.7,0.2c0.7,0,2.1-0.5,2.9-0.9c0.8-0.4,0.9-0.9,1.2-1.3
		c0.3-0.4,0.9-0.7,2.1-0.9c1.2-0.2,1.6-0.4,2.5-1.2c0.9-0.8,1.1-2.8,1.3-3.6c0.2-0.7,0.4-2.1,0.9-2.5c0.5-0.4,1.6-0.7,2-1.5
		c0.4-0.7,0.2-1,0.6-1.4s2.2,0,2.9-0.4c0.7-0.4,1-1.1,1.1-1.6c0.1-0.5,1.3-0.7,2.5-0.5c1.2,0.2,1.9,2.4,2.2,2.6
		c0.3,0.2,1.1,0.6,1.1,1.2c0,0.6-3.9,2.6-5.1,2.5c-1.2-0.2-3,2.7-3.1,3.3c-0.1,0.6-1.3,1.6-3.6,1.9c-2.3,0.3-3.7,2.9-3.7,2.9
		s-1.4,2.8-2.1,3.2c-0.6,0.4-0.9,0.9-1.9,0.9c-1,0-3.2,3.4-3.7,3.6c-0.4,0.1-0.6,2.6-0.6,3.8s0.3,1.2,0.7,1.6
		c0.4,0.4,0.2,3.1,0.4,5.1c0.2,2,1.9,2.8,2.2,2.9c0.3,0.1,4.1,0.1,4.5,0.1c0.4,0,0.9,1.6,1.7,1.8c0.8,0.3,1.6-0.1,2.5-0.3
		c0.9-0.2,2.3,0.4,3.5,0.3s2.6-2.5,3.1-2.6s1.5-0.6,2.2-0.9c0.7-0.3,2.8-1.2,3.4-1.9c0.6-0.7,0.3-1.7,0.6-2.3
		c0.3-0.6,2.1-1.7,2.6-2.6c0.5-0.8,1-2.7,2.3-2.4c1.3,0.2,3.4,1.3,5.7,0.9c2.3-0.4,2.2-2.8,2.9-3.9c0.6-1.1,2.3-0.6,2.9-1.3
		c0.6-0.7,0.1-1.9,0.1-2.9s1.2-2.4,1.2-2.4s1.6,1.1,2.3,1.1c0.7,0.1,1.6-1.8,2.2-2.2c0.5-0.5,2.6-0.2,3.2-0.2
		c0.6-0.1,2.2-1.6,2.2-1.6s7.1-3,7.9-2.4c0.8,0.6,1.5,0.1,2.5,0c1-0.1,0.9-0.8,1.3-2.3c0.4-1.5-1.1-1.2-1.1-1.2s0.7-2.7,2.3-2.7
		c1.6,0,3.6-0.2,4.2-1c0.6-0.7,0.9-0.6,1.7-0.8c0.8-0.2,2.5-1.6,4.3-2.6s1.9-1.9,2.8-2.5c0.9-0.6,1.5-0.1,1.7-2.3
		c0.2-2.2-0.7-2.7-1-3.8C924.8,702.8,924.8,702.4,924.4,701.8z M688.2,729c-0.8-0.3-10.2-11.7-14.5-10.3c0,0,4.2-5.6,5.1-5.6
		s1.6-0.1,1.8-0.7c0.2-0.6-1.1-7.1-1.1-7.1l2,0.7c0,0,1.2,5.1,1.6,6c0.4,0.8-0.9,3.2,0,4.7c0.9,1.6,6.8,8.2,6.8,8.7
		C690,725.8,689,729.3,688.2,729z M719.9,711.5c0.1-0.6-1.7-0.2-1.7-0.2s-0.2,1,0,1.3c0.2,0.3,0.9,1.1,0.9,1.1s-0.1,0.8-0.4,1.2
		s-1.9,0.2-2.6,0c-0.7-0.1-1.2,0.2-1.5,0.4c-0.2,0.2-0.7,0.7-1.4,0.4c-0.7-0.3-0.5-0.7-1.1-0.8c-0.6-0.1-0.4,1.7-0.8,1.9
		c-0.4,0.2-0.8,0.5-1.3,1.2c-0.5,0.7,0.1,1.2,0.4,1.6c0.4,0.4,0.3,0.1,1.2,0.3c0.9,0.2,0,0.8,0,0.8c-0.4-0.5-2.7,0-3.9,0
		s-0.6-0.5-0.6-1.9c-0.1-1.4-0.8-2.1-0.8-2.4c0-0.3-1-0.9-1.4-1.1c-0.4-0.2-0.8,0-1.7-0.6s0.2-0.2,0.8-0.7c0.6-0.4,0.1-1.8,0.1-2.5
		c0-0.7-0.3-1.2-0.7-2c-0.4-0.7,0.7-2.2,1.4-2.2c0.7,0,1.9,0.9,2.7,1.1c0.8,0.2,2.6-0.5,2.6-0.5l1,0.5c0,0,0.9,0.3,1.9,0.4
		c0.9,0.1,1.1,0.1,1.5,0.3c0.4,0.2,1.6,0.3,2-0.1c0.4-0.4,1.9-0.1,2.4,0c0.5,0.1,0.6,1,0.8,1.4c0.2,0.4,1.2,0.8,1.2,0.8
		s0.9,0.5,0.9,1c0,0.5-0.3,0.7,0.4,1c0.7,0.2,0.7,0.6,0.9,1.2c0.2,0.6-2.4-1-3.2-1.3C719.2,712.7,719.8,712.1,719.9,711.5z
		 M726.9,723c-0.7,0,1.4,1.6-0.3,1.9c-1.7,0.4-2.9-0.6-3.2-0.4c-0.3,0.2,0.9,4.6-2.2,2.4c0,0,0-1-0.4-1.2c-0.4-0.2-0.9-0.7-0.9-1.4
		c0.1-0.7,0.1-1.6,0.6-1.7c0.5-0.1,0.1-1.4,1.1-1.3c1,0.1,0.5-1.5,2-1.3c1.5,0.2,1.7,0.5,1.9,0.9c0.2,0.4,1.6-0.1,1.7,0.9
		C727.4,722.7,727.6,723,726.9,723z M808.8,675.1c-0.1,0.6-1.6,1.9-2,2.6c-0.4,0.7-1.9,0.4-1.9,0c0-0.4,0.9,0.1,0-0.4
		c-0.9-0.5-2.1-0.4-2.7,0.8s-1.1,1.9-1.9,2.3c-0.9,0.4-2.1,1.4-1.4,1.7c0.7,0.4,1.4-0.4,1.4,0.6c0,1-1,1.4-1.4,1.4
		c-0.4,0,0.1,1.1-0.9,1.4c-1,0.2-1.5-0.6-1.2-1.5c0.2-0.9,1-2.1,0.1-2.2c-0.9-0.1-1.2-0.7-1.2-0.7s0.9-2,0-4.2c0,0,4-2,4.6-3
		c0.6-1,1.5-0.1,1.5,0c0,0.1-0.4,0.6,0.7,0.6c1.1,0,3.4-1,4.6-0.5C808.5,674.5,809,674.5,808.8,675.1z M855.3,690.3
		c-0.4,0.9-1.6,0-1.6,0s-1.2,0-1.7,0.4c-0.5,0.4-3.4,1.1-2.4,1.8c1,0.7,0.7-0.8,1,0.7c0.2,1.5-0.7,1.1-1.1,2.1
		c-0.4,1-0.2,1.5-1.1,1.7c-0.9,0.2-3,1.4-3.5,1.2c-0.5-0.1-0.1-1-0.5-0.1s0.2,0.2-0.4,1.3c-0.6,1.1-2.2,1.6-2.4,0.8
		c-0.1-0.7-0.6-1.5-1.1-1.5c-0.5,0-1-1.2-1-1.2s1.2-0.2,1.2-1.6c0-1.4-0.7-2,0-2.7c0.7-0.7-0.7-3.3-1.4-3.4
		c-0.6-0.1-1.1,0.4-2.4-1.5c0,0,1.4,1.2,1.8-0.5c0.4-1.7,0-3.5,0-3.5s-0.4-3.7,1.2-3.1c1.6,0.6,2.5-0.6,2.5-0.6s1.1-2.1,2.2-1.6
		c1.1,0.5,0.7,1.1,1.7,1.6c1,0.5,1.9-0.4,2.9-0.1s0.7,0.9,1.4,1.9c0.6,1,2,1.2,2,2.7s-0.7,1.9,0,2.4
		C853.4,688,855.7,689.5,855.3,690.3z"></path>
	<path style="fill:#EB0900;" d="M718.8,639.3c-1,0.5-2.6,1.2-1.9,2.4c0.7,1.1,0,2.4-0.2,2.4c-0.2,0-1.6,2.4,0,3.5
		c1.6,1.1,2.9,1.7,4.3,0.7c1.4-1,1.2,1.3,2.6,0.5c1.4-0.8,4.1-3.4,2.4-4.7c-0.3-0.2,0.2-2.4-0.6-2.5c-0.9-0.1-2.3-1-2.3-1
		S719.8,638.8,718.8,639.3z"></path>
	<path style="fill:#EB0900;" d="M724.4,657.4c-1.6,0.9-1.4,2.2-0.8,2.5c0.6,0.2,0.3,0.7,1.1,2.4c0.9,1.6,1.7,0,2.9,0
		s0.4-1.6,2.1-2.5c1.7-0.9,2.2-1.9,1.4-2.2c-0.7-0.4-0.7-0.2-1.4-2c-0.7-1.7-3.1-1.9-3.1-1.9C725.2,653.3,726.1,656.5,724.4,657.4z"></path>
	<path style="fill:#EB0900;" d="M738.3,644.9c0,0.5-1.1,0.1-1.6,0c-0.5-0.1-0.9-1.1-1.5-0.8c-0.6,0.2-1.6,1.8-1,2.2
		c0.6,0.4-0.5,1.4,0.9,1.6c1.4,0.2,1.6,1.6,1.9,2.9c0.2,1.2,0.1,1.1,1.4,0.9c1.2-0.2,1.7,1.2,2,0.2c0.2-1-0.2-2.7,0.5-2.9
		c0.7-0.2,1.4,0.4,1.4-0.8c0-1.2,0-2.5,0-2.5s1-2.1,0-2.4C741.2,643,738.2,643.5,738.3,644.9z"></path>
	<path style="fill:#EB0900;" d="M750.5,648.3c0.6,0,3.1,0.2,4,0c0.9-0.2,1.1,0.8,1.3,1.7s2.9,2.8,2.6,3.2c-0.3,0.4,3.6,2.6,4.4,2.6
		c0.7,0,0.6,2.2,2,2.5c1.4,0.3,1.1-3.2,1.2-3.8c0.1-0.7,0.9-0.3,0.9-2.3c0-2-3.4-2.9-3.7-3.3c-0.4-0.3-0.4-1.7-0.9-2
		c-0.5-0.4-1.9,0.2-2.1-0.7c-0.2-1,1.1-2.9,1.1-2.9s0.1-1.3,0-1.7c-0.1-0.4-0.9-1.9-1.9-1.6c-1,0.2-2-1.5-3.4-1.6s-1.6,1.6-1.6,1.6
		s-3.2,0-4.2,0c-1,0-2.3,2.8-1.6,3.3c1.6,1.1-0.5,2.1-1.4,2.1c-0.9,0,0,1.5,0,2.4C747.4,648.6,749.9,648.3,750.5,648.3z"></path>
	<path style="fill:#EB0900;" d="M758.5,632c-0.6,0.2-1.4,1.2-0.9,2.4c0.5,1.1,3,4.6,3.4,3.9c0.4-0.7,2.4-3.6,3.2-3.7
		c0.9-0.1,0.1-1.7,0-2c-0.1-0.2,1.5-2.8-2.2-2.1c0,0-1.4-2.1-1.9-2.1s-2.7,1.7-2.5,2.1C757.9,630.8,759.1,631.8,758.5,632z"></path>
	<path style="fill:#EB0900;" d="M683.2,618.9c1.3,0.5,1.5-1,2.4,0c0.9,1,1.5,0,1.5-0.6c0-0.6,1.2-5.2-3-4.4c0,0-1.4,1.2-0.7,2.6
		S681.9,618.4,683.2,618.9z"></path>
	<path style="fill:#EB0900;" d="M701.8,576.4c0,0,1,0.9,1.7,0c0.7-0.9,1.6-1.4,1.6-1.4s2-2.6,1.6-3.5s-1.1-2.5-1.1-2.5h-1.9
		c0,0-1.5-2.9-2-2.7s-3.2,2.4,0,8.1C701.8,574.4,700.7,575.2,701.8,576.4z"></path>
	<path style="fill:#EB0900;" d="M705.3,584c-0.7,0.2-1.9,0.7-1.9,0.7c-1.4,2.2-0.3,3,0.6,4.4c0.6,0.9,0.9,2.4,0.9,3.1
		c0.3-0.8,1.5-2.2,2.7-2.5c1.4-0.4,0.2-1.6,0-2c-0.2-0.4-1-1-1-1s0.7-0.7,1-1.2C708,585,706.1,583.7,705.3,584z"></path>
	<path style="fill:#EB0900;" d="M705,592.5c0,0.2,0.1,0,0-0.3C705,592.3,704.9,592.4,705,592.5z"></path>
	<path style="fill:#EB0900;" d="M738.3,609.9c0,0-1.5-0.6-0.9-1.6c0.6-1,0-2.6,0-2.6c-0.2-1.1-2.1,1.1-2.2,1.5c0,0.4-1,0.6-1.8,0.2
		c-0.9-0.4-1,1.5-1.2,2c-0.2,0.5-0.5,0.9-1.2,1.7c-0.7,0.9,1.9,3.1,3,3.5c1.2,0.4,1.4-1.3,1.4-1.3s1.6,0.6,1.8,0.5
		c0.2-0.1,2.9-2.8,2.4-3.9C739.2,608.8,738.3,609.9,738.3,609.9z"></path>
	<path style="fill:#EB0900;" d="M716.3,574.6c1.4,0.4,2,1.1,2.1,1.5s0.6-0.2,1.9-0.7c1.2-0.5,1-2.1,1-3.2c0-1.1,0.1-1.7,0-2.7
		c-0.1-1-0.8-2.4-1.5-2.2c-0.7,0.1-0.7,1.1-1.4,1.1c-0.6,0-1.1-2-1.8-1.1c0,0-1.1,1-0.7,1.9c0.4,0.9,0.2,1.4,0,2.5
		C715.8,572.6,714.9,574.2,716.3,574.6z"></path>
	<path style="fill:#EB0900;" d="M732.8,595.4c0.4,0.2,0.4,1.7,1.2,1.9c0.8,0.2,1.2-0.6,1.3-1.7s2.2-2.1,2.2-2.1
		c1.6,0,1.1-1.9,0.9-2.7c-0.3-0.9-0.9-0.2-0.9-0.2s-1,0-2.2,0s-1,0.5-1.4,1.3c-0.4,0.8-0.8-1.1-1.7-1.8c-0.9-0.6-1.4,1.4-1.5,1.8
		c-0.1,0.4-0.7,1.5,0,2.5C731.4,595.2,732.4,595.2,732.8,595.4z"></path>
	<path style="fill:#EB0900;" d="M830.8,589.8c0.3,0.6,2.4,0.9,2.4,1.5c0,0.6-1,1.4,0.2,1.4c1.2,0,1.7-1.1,2.1-1.1
		c0.4,0,1.2,1.1,1.2,1.1s-0.4,2.5,0.7,2.2s0.7-1.2,1.7-1.9c1-0.6,3.1-1.7,3.4-2.4c0.2-0.6,1-1.9,0-1.9c-1,0-1.7-1-0.9-1.5
		c0.9-0.5,1.6-0.5,2.1-2s2.6-2.9,1.6-4.2c-1-1.4-2.1-0.4-2.4,0c-0.2,0.4-1.6,2.1-2.5,2.2c-0.9,0.1-1.7,0.2-2.5,0.1
		c-0.7-0.1-1.7,1.2-1.9,1.9c-0.1,0.6-2.7,0.2-2,2.1c0,0-1,0.1-1.7,0c-0.7-0.1-0.6-1-1.2-1s-2.5,1.1-1.9,1.9
		C830.1,589.1,830.6,589.2,830.8,589.8z"></path>
	<path style="fill:#EB0900;" d="M913.9,584.7c1.2-0.4,1.3-1.9,2.4-1.6c1.1,0.2,4.2,1.6,4.2-0.7s-0.6-3.4,0.1-3.5
		c0.7-0.1,3.5-2,1.2-3.6c0,0-2-0.2-3.7,0.9s-2.1-0.9-2.1-0.9s-0.6-1.2-1.1-0.9c-0.5,0.4-5.6,2.6-5.7,4.5c-0.1,1.9,0.7,2.7,0,3.1
		c-0.7,0.4,0.7,0.5,1.9,1.1C912.2,583.7,912.8,585.1,913.9,584.7z"></path>
	<path style="fill:#EB0900;" d="M839.7,637.5c0,0-0.6-0.1-1.5-0.5c-0.9-0.4-2,2.1-2.5,2.9c-0.5,0.7,1.2,1.2,1.2,1.7s1.2,1.5,0,3
		c-1.2,1.5,0.1,2-0.1,2.7c-0.2,0.7,0,0-0.9,0.9c-0.9,0.9,0.4,4.5,0.9,4.2c1.1-0.7,1.4-4.2,1.4-4.2s2.6-3.7,3-4.2
		c0.4-0.5,0-5.5,0.1-6.2c0.1-0.7,6.2,0.6,6.7,0.5c0.5-0.2,3.3-2.7,3.3-2.7s0.1-1.2,0.7-2.3s-1-1.3-2.9-1.4c-1.9-0.1-2,1.4-2,1.4
		s-1.2,0.3-2.4,0C843.7,633,839.7,637.5,839.7,637.5z"></path>
	<path style="fill:#EB0900;" d="M870.2,636.8c0.5,0.2,0.8,0,2-0.2c1.2-0.2,4.1,0.9,4.1,0.9s3.8-0.5,5-1.1c1.1-0.6,3.3-0.8,3.4-1.4
		c0.1-0.7-2.1-1-3.2-1.6c-1.1-0.6-3.7-0.9-4.9-1.4c-1.1-0.5-2.1,2-3,1.4c-0.9-0.6-3.3,1.2-3.3,1.2s-0.8,0-1.5-0.3
		c-0.7-0.4-1.3,0.7-1.3,0.7C866.6,636.5,869.6,636.7,870.2,636.8z"></path>
	<path style="fill:#EB0900;" d="M894.4,636.5c1.5,0,2.6,1.7,2.6,1.7l-0.6,1.4l5.4-1.5c0.5-4-2.4-2.4-2.7-3.5s-1.9,0-1.9,0
		s-0.9-0.6-2-0.9c-1.1-0.2-1.1,1.1-1.9,0.9s-2.4,0.7-2.4,0.7C889.6,636.8,892.9,636.5,894.4,636.5z"></path>
	<path style="fill:#EB0900;" d="M941.2,646.3c0,0,0.4-1.2,1.5-0.9c1.1,0.4,1.5-1.1,1.5-1.5c0-0.4,0.6-1.8,1-1.7c0.4,0.1,0-0.7,0-0.7
		s-1.1-0.1-1-0.7c0.1-0.6,0.6-0.2,1.2-1.1c0.6-0.9,1.3-2.8,2.1-2.2c0.7,0.7,0.9,1.3,1.9,1c1-0.2,2,2.1,2.9,1.1
		c0.9-1,1.5-2.2,1.5-2.2s-0.7-2.1,0-2.3c0.7-0.2,3.5-3.3,3.5-3.3s2-1.5,1.1-2.4c-0.9-0.9-0.4-1.7,0.2-2.2c0.7-0.5,2.5-1.5,3-1
		c0.5,0.5,1.8,0.7,1.8,0.7s2.9,0.5,4.9-2.7c2-3.2,1.1-4,0.6-4.3c-0.5-0.3-1.5-0.8-1.5-0.8s-1.3,2-1.5,1c-0.2-1-0.7-2.2,0.4-2.2
		c1.1,0.1,2.7,0.3,3.4,0c0.7-0.3,2.6-1.5,2.6-1.5s1.3-3.5,0.2-4c-1.1-0.5-2.3-0.4-2.3-0.4l-2.2,1.4c0,0-0.2-1.3-1.2-0.8
		c-1,0.5-5.7,4-5.7,4s-1-1.5-2.3-0.2c-1.3,1.3-2.5,2.8-2.5,2.8s1.4,1.1,1,1.2c-0.4,0.1-3.6,2.7-3.5,3.5c0.1,0.8-0.4,2.7-0.4,2.7
		l-1.6-0.8c0,0-0.4,1.7-0.9,1.7c-0.5,0-0.5-2.6-1.3-2.3c-0.7,0.3-2.8,2.2-2.9,3.9c-0.1,1.7-1.2,4.1-0.9,5.5c0.3,1.4-1.4,2.8-1.4,2.8
		s-0.3,1-1.2,2.2c-0.9,1.1-1.6,2.6-1.6,3.3c0,0.8-2,2.9-1.5,3.5C940.5,647,941.2,646.3,941.2,646.3z"></path>
	<path style="fill:#EB0900;" d="M1008.5,685.6c-0.2-1.2-0.5-0.3-1.1-1.8c-0.6-1.5-0.5-3.9-1-4.3c-0.5-0.3-2.6-0.6-3.6-0.7
		c-1,0-3.5,0-3.5,0s0.8-2.9,1.4-3.2c0.6-0.4,2.1-0.7,1.3-1.2c-0.8-0.5-2.7,0.2-2.7,0.2s-0.4,0.6-0.9,1.2s-1.9,1.4-2.3,1.7
		c-0.5,0.4-1.3,0.8-1.6,2c-0.3,1.2-0.8,2.2-1.3,1.9c-0.5-0.4-1.3-1.4-1-2.5c0.3-1.1,0.9-1.4,1.3-2.8c0.4-1.5,0.2-3.3,0.8-3.6
		c0.6-0.3,2.1-1.7,2.7-1.9c0.6-0.2,4.5-2.2,2.7-5.9l-2.2,1.3l-2.3-0.5l-1.7,1.7c0,0-0.5-2.9-0.3-3.6c0.1-0.7-0.3-3.5-0.3-3.5
		s0.2-3.3,1.4-3.9c1.1-0.6,1.4-0.8-0.1-2s-4.6-3.1-7.7-3.6c-3.1-0.6,0.5-1.1,0.5-1.1s1.4-1.5,1-2.7c-0.4-1.2-1.1-1.8-2-0.8
		c-0.9,1-2.5,1.8-2.5,1.8l-3.8-0.8c0,0-0.5,1.5-2.2,1.8c-1.7,0.4-3.8,0.3-5.2,1.3l-2.7-2.2c0,0-0.4,0.7-1,0.3
		c-0.6-0.4-1.4-1.7-0.5-2.2c0.9-0.5,2.6-1.6,3.3-2.6c0.7-0.9,1.8-2.4,0-2.1c-1.8,0.2-4.2,0.5-4.3,0.4c-0.1-0.1-1-3.8-3-2.8
		c-2,1-1.4-0.2-1.7,1.3c-0.3,1.4,0.6,0.7-0.3,1.4c-0.9,0.7-2.8,1.1-3.8,4.6c-0.9,3.5-2.1,4.2-2.1,3c0-1.1-0.5-2.5-0.5-2.5
		s-3.6,3.5-6,4.5c-2.4,1-3-1.1-3.2-1.2c-0.2-0.1-4.1,1.2-5,3.6c0,0,0.6,0.5,0.8,2.1c0.2,1.6,0.3,3.1-0.1,2.7
		c-0.4-0.4-1.1-1.1-1.6-1.4c-0.5-0.3-2-0.3-2-0.3s-1.9,3.4-2.3,5.6c-0.5,2.2-1.3,1.8-1.6,1.6s-1.4-0.8-1.9-0.3
		c-0.5,0.5-1.8,0.8-2.8,1.8c-0.9,1-1.3,3,0,2.6c1.3-0.4,4.4-1.1,4.4-1.1l1.4,0.5c0,0,0.7-0.4,0.4,0.6c-0.3,1-0.6,3.3-2.9,4.5
		c-2.3,1.2-3.4,1.5-3.8,2.1s-2.4,3.5-2.2,5.1c0.2,1.5,0.9,4.7,3.2,4.4c2.4-0.3,2.8,0.1,5.5-2.5c0,0,0.2-1.9-0.6-2.1
		c-0.9-0.2-1.4-1.9-1.4-1.9s2.4,0.2,3-1.6c0.6-1.9,3-2.3,2.9-2.6c-0.1-0.3,3.1-2.5,2.4-3c-0.7-0.5-1.6-1.6-1.1-1.9
		c0.5-0.2,1.6-4.4,3.9-4c2.2,0.4,2-2.2,2-2.2s-1.1-2.6,0.6-2.6c1.7,0,2,1.2,1.9,1.7c-0.1,0.5,1.2,0.7,1.5,2.2
		c0.2,1.5,2.7,3.9,2.6,4.5c-0.1,0.6,1.1,0.6,1.9,1.4c0.7,0.7,2.5,1.1,2.5,0.5c0-0.6,0-2.1,0-2.1s0.7-1.9,1.7-1.9
		c1,0,2.6-0.9,2.6-0.2s-0.9,1.2,0,1.4c0.9,0.1,1.6-0.2,2-0.6c0.4-0.4,1.2-0.9,2.2-0.9c1,0,0.7,0.7,1.5,1.1c0.7,0.4,1.4,0.2,2.5,0.4
		c1.1,0.1,2.9-0.1,2.9-0.1s0.2-1.6,1-2.4c0.7-0.7,2.2-1.5,2.9-1.5c0.6,0,1.6,0.5,1.6,1.4s-1.4,1.2,0,2c1.4,0.7,2,2.9,2,2.9
		s0.6,1,0,2.4c-0.6,1.4-0.7,2.7-1.1,2.9c-0.4,0.1-1.9,0-2,0.5s0.9,1.2,0.9,2.5c0,1.2-0.4,3.1-0.6,2.5c-0.2-0.6-1.5-1.2-1.5-1.2
		s0,1.6-0.6,1.9c-0.6,0.4-2.2,0.7-2.2,0.7l-1-0.7l-1,0.7c0,0-0.2,2-0.6,2.1c-0.4,0.1-0.4-2.6-0.4-2.6s1.2-1.9,1.1-2.2s-1-1-0.5-1.4
		c0.5-0.4,3-2.1,2.7-2.7c-0.2-0.6-1.3-1.3-1.3-1.3s-1.4-0.4-1.8-0.9c-0.4-0.5-0.9-2.1-1.5-1.9c-0.6,0.2-0.7,0.8-1.1,1.1
		c-0.4,0.3-1.5-0.4-1.9,0c-0.4,0.4-1.2,1.7-1.2,1.7l-1.6,1.5c0,0-1.4,1-1.9,1.2c-0.5,0.2-1,1-1,1.6s0.5,1.9,0,2.4
		c-0.5,0.5-0.2,0.9-1.1,0.9c-0.9,0-1.7,0.5-2,1.1c-0.3,0.6,0,1.5-1.3,1.1c-1.3-0.4-2.7-1-2.7-1l-1.1-0.7c0,0-0.1-2.2-0.5-2
		c-0.4,0.2-1.6,0-1.6,0s-1.4,1.1-2.2,0.7c-0.9-0.4-1.2-0.7-1.2-1.3c0-0.7,0.1-2.3-0.5-2.3s-0.6,0.5-1.4,1.1c-0.7,0.6-0.7-1-1.6,0.6
		s-0.8,1.6-0.9,2.5c-0.1,0.9,1.8,1.3,4.1,1.2c2.3,0,2.7-0.8,4.2-0.1c1.6,0.8,5.9,3.6,6.3,3.2c0.4-0.4,1.4-2.5,2.3-2.5
		c0.9,0,3.5,0.4,3.8,0.2c0.4-0.3,1.7-1.2,1.7-1.2l2.1,1.7l2.3,0.5c0,0,0.1,1.7,1.1,1.4c1-0.3,1.9-1.1,1.9-1.1s-0.8-1.9,0.3-1.6
		c1.1,0.3,4,0.6,4,0.6s-0.3,1.1-0.8,1.6c-0.5,0.5-2.6,2.2-2.8,3.9c-0.1,1.6-2,3-2.9,2.9c-0.9-0.2-2.3-0.9-2.8,0
		c-0.5,0.9-1.5,3.2,2,3.4c3.5,0.2,5.1,0.1,6.1-1c1-1.1,1-2.7,1.3-3.4c0.3-0.7,1.6-2.5,1.6-2.5s1.4,1,2.2,0.3
		c0.8-0.6,1.4-2.3,2.6-2.1c1.3,0.2,1.8,0.9,2.5,0.6c0.7-0.3,2.6-3.7,3-3.2c0.4,0.5,1.1,4.1,0.7,4.5c-0.5,0.4-0.4,0.1-0.6,0.8
		c-0.2,0.6-0.9,1.7-1.5,3.5c-0.6,1.8-0.9,3.4-0.4,4.1c0.5,0.6,1.6-1.8,2.2-2.5c0.6-0.7,3.7-2.7,3.9-2.5c0.2,0.2-1.1,1.5-0.8,2.2
		c0.3,0.7,0.7,1.7,0.6,3.6c-0.2,1.9,0.5,2.3,1.2,1.8c0.8-0.5,1.2-2.4,1.7-1.7c0.5,0.7,2.3,2.5,3,2c0.7-0.5,0.8-1.7,1.2-2.1
		c0.4-0.4,0.8,0.5,1.2-0.9c0.4-1.4-0.1-3.4,0.4-3.9c0.5-0.5,1.6-1.3,1.8-2.6c0.2-1.3,1.9-0.3,2.7-0.7
		C1006.9,688.8,1008.7,686.8,1008.5,685.6z"></path>
	<path style="fill:#EB0900;" d="M811.6,351.7c1.7,0.4,2.7,0.5,2.9,1.4s0.9,3.1-0.4,2.9c-1.2-0.2-1.7,0.4-1.5,1
		c0.2,0.6,1.9,3.4,2.9,2.6c1-0.7,1.5,0,2.2,0.1c0.7,0.1,5,1,5,0c0-1,0.2-1.8-0.8-2c-1-0.2-1.5-1.5-2.1-2.6s-0.4-3.2,0-3.4
		c0.4-0.1,2.1-0.4,2.1-0.4s0.1,2.4,2.6,2.5c0,0,0.4-2.2-0.6-3.2c-1-1-0.5-2-1.5-2.2c-1-0.2-2.4-0.4-2.9-1c-0.5-0.6-0.7-2.1-1.4-2.4
		c-0.6-0.2-4.4-4-4.5-1.9c-0.1,2.1-0.4,2.9-0.9,2.5c-0.5-0.4-4.1-3-4.7-2.4C807.5,343.9,809.8,351.4,811.6,351.7z"></path>
	<path style="fill:#EB0900;" d="M597.2,650c0.5,0-0.3,0.6,0,1c0.2,0.4-0.7,1.1,0,1.4c0.7,0.2,0,1.2,0,1.2c0,2.6,4.1-2.4,4.5-3.4
		c0.4-1-0.1-2.2-0.1-2.2s1-0.4,2-0.1c1,0.2,1.1,1.9,1.5,1s0.5-1.5,0.5-1.5s1.1,0.6,1.7,0.6s0.4-0.9,1.1-1c0.7-0.1,1.4,1.4,2.6,0.9
		c1.2-0.5,1.5,0.2,2.4,0.2c0.9,0,1.5,0.1,2.6,0.1c1.1,0,0.5-1.4,0.5-1.4s0.7,0.7,1.1,1c0.4,0.2,1.6-1,1.6-0.1c0,0.9,0.4,1.2,1.4,1.5
		c1,0.2,0,0,1,1.1c1,1.1,0.6,0,1.6-1.1c1-1.1,0,0,1.1-0.3c1.1-0.3-0.8-1.8-0.8-1.8s-0.3-1.4,0-1.7c0.2-0.4-0.5-1.4-0.9-2.2
		c-0.4-0.9-1.7,0-2.6,0s-2.9-0.7-2.9-0.7s-0.7-0.6-1.3-1.4c-0.6-0.7-1.7,0.7-2.2,0.6c-0.5-0.1-0.7-1.2-0.2-1.2s2.4-1.5,3.4-1.9
		c1-0.4,0-1.2,0-1.7c0-0.5-0.4-1.1-0.9-1.7c-0.5-0.6-1.4,0.6-2.2,0.7s-2,0.5-2.4,0.7c-0.4,0.2,0.8,2.7,0.8,2.7l0,2.5
		c0,0,0.1,1.2-0.5,1.2c-0.6,0-1,1-1.5,1.2c-0.5,0.2-2.7-0.3-4.7,0c-2,0.3-4.2,2.2-4.2,2.2s-0.7-0.5-1.9-0.9
		c-1.1-0.4-2.1,2.5-2.1,2.5s-1.7,0.5-2.2,2.1C594.2,651.6,596.7,650,597.2,650z"></path>
	<path style="fill:#EB0900;" d="M635,655c0.8,0.2,0.8,0.2,0.8,0.6c0,0.4,0.9,1.4,1,1.6c0.1,0.2,0.3-0.1,1.3,0c1,0.1,1.5-0.6,1.7-1.2
		c0.2-0.7,0.6-1.4,0-1.8c-0.6-0.3-1.2-1-1.9-0.6c0,0,0.2-0.3,0.7-0.8c0.5-0.5,0.4-1.6,0-1.6c-0.4-0.1-0.2-0.2-0.7,0.3
		c-0.6,0.5-1.1,0.4-1.4,0.8c-0.3,0.5-1.6,0.9-1.6,0.9S634.2,654.8,635,655z"></path>
	<path style="fill:#EB0900;" d="M640.3,681.8c0.2-0.4-0.7-0.7-1-0.8c-0.3-0.1-0.7,0-1.2,0.3c-0.6,0.3,0,1.3,0,1.3
		C640,683.6,640.1,682.3,640.3,681.8z"></path>
	<path style="fill:#EB0900;" d="M623.1,658c0.6,0.4,1.3-0.3,1.7-0.9c0.4-0.6,0,0,1.2,0.1c1.2,0.1,0.2-1,0.2-1.3s0.2-0.5,0.7-1.2
		c0.5-0.7,0-1.1,0-1.1c-0.7-1-1.9,1.2-2.4,1.5c-0.4,0.2-1.3,1.2-1.6,1.3C622.8,656.6,622.6,657.6,623.1,658z"></path>
	<path style="fill:#EB0900;" d="M639,678.4c0.5-0.2,1-0.6,1.2-1l0.1,1.8l2-1.7l3.7,3.4c0,0,1-0.3,2-0.3s4.7,2.4,4.7,2.4l5.1-2
		c0,0-1.7-4.4-1-5.4c0.7-1,0.3-3,0.3-3l-4-2l-3.4,2.4l-3.4-2.7l-2,1.3l-1.3-3.7l-2.4-2.4l-4,1.3l-3.1-2.3c-0.2-0.8-0.4-2.1-1-1.8
		c-0.4,0.2-0.5,0.3-0.7,0.5c-0.3-0.4-1-0.8-1.4-0.9c-0.7-0.1-0.2,0.1-0.4,0.3c-0.2,0.2-0.7-0.7-0.9-1.4c-0.2-0.7-3.1-0.4-4.4-0.3
		c-1.3,0.1-1,2.2-1.3,2.2c-0.3,0-0.7-0.3-1.5-0.8c-0.7-0.5-1.3,0.6-1.5,0c-0.2-0.6-1.6-0.9-1.5-1.4c0.1-0.4-0.7-0.8-1.5-0.9
		c-0.8-0.1-1.6,1.1-2,1.1c-0.4,0-1.2,0-2,0c-0.7,0-0.2-0.5-1-1c-0.7-0.5-6.5,0.2-6.7-0.4s-1.2-0.8-1.7-0.7c-0.5,0.1-0.5-0.4-1.5-0.7
		c-1-0.3-3.8,0.2-4.1,0c-0.2-0.2-0.1-1.3-0.2-1.7c-0.2-0.4-1.2-0.4-1.7-0.2c-0.6,0.2-0.6,1.8-1,1.9c-0.4,0-0.4,0.2-0.9,0.5
		c-0.4,0.3-0.7,1.5-1.4,1.9c-0.7,0.4-0.3,0.8-0.3,0.8l-1,0.8c0,0-0.2,0.6-0.4,1.2c-0.2,0.7-0.8-0.1-1-0.4c-0.2-0.3-0.2-1.2-0.2-1.7
		c0-0.5-0.6-0.5-1.4-0.6c-0.8-0.1,0,0-0.2-0.6c-0.2-0.6-0.7,0.2-1,0.6c-0.3,0.3-1,0.5-1.7,0.6c-0.7,0.1-0.3,1.7-0.7,2.2
		c-0.3,0.5-0.8-0.7-0.8-1c0-0.3-0.4-1-0.5-1.4c-0.1-0.3-1.1-0.3-1.6-0.3c-0.5,0-0.5,1.4-0.5,1.4s-0.7-0.3-0.6-1
		c0.1-0.7-0.3-1.2-0.8-1.1c-0.5,0.1-0.7-0.1-1.4-0.5c-0.7-0.4-1.2-0.7-1.4-0.7c-0.2,0-0.7,1.1-0.8,1.3c-0.1,0.2,0.6,1.7,0.9,1.9
		c0.3,0.3-0.9,0.7-1.3,0.3c-0.4-0.4-1.2-0.3-2.3-0.3c-1.2-0.1-1.4,1-1.9,1s-4.2-0.5-4.8-1c-0.7-0.5-0.9-0.9-1.8-0.9
		c-0.9-0.1-0.5,0.6-0.5,0.6s-1.7,0.1-1.8-0.6c-0.2-0.7-2.1-0.6-2.1-0.6s-0.6-0.6-1.3-0.7c-0.7-0.1-0.7,0.7-0.7,0.7s-1.7,0-2.7,0
		c-0.9,0-0.7-0.2-1-0.5c-0.4-0.2-1.7-0.2-2.4,0c-0.7,0.2-0.2,1.1-0.5,1.2c-0.2,0.1-2-0.3-2.6-0.2c-0.6,0.1-1.1,0-1.9-1
		s-2.7-0.5-3.1-0.5c-0.3,0-0.9,0.8-0.9,0.8s-0.7,1-1.3,0.7c-0.6-0.2-1-1-1.6-1.3c-0.6-0.3-1,0.7-1.3,1.2c-0.3,0.4-1.2,0.4-1.4,0.1
		c-0.2-0.3-1,0-0.8-1.5c0.2-1.5-0.7-1.3-0.7-1.5c0-0.2-1.4-0.1-1.2-2.4c0.2-2.2-0.7-1.7-1-2.9c-0.2-1.3,0.2-1.1,0.5-1.7
		c0.2-0.6-0.2-1.5-1-2c-0.7-0.5-2.4,1.1-2.7,0.3c-0.2-0.7-1.2-0.8-1.6-0.7c-0.3,0.2-0.2,2.5,0.2,2.4c0.4-0.1,0.8,1.7-0.1,1.7
		c-0.9,0-1.3,0.6-2.4,1.3c-1.1,0.7,0.3,3.7-0.4,4c-0.7,0.2-2.6,0-2.6,0c0,0,0.3,2.3,1.1,4.4c0.7,2.1,0.8,1.2,3.3,1.4
		c2.5,0.2,2.2,0.5,3,0.9s2.7-0.3,2.7-0.3c0.2,1.7,1.4,1.9,2.8,2c1.4,0.1,2.5-1.1,3-1.5c0.5-0.4,3-0.7,3.8-0.7
		c0.8-0.1,3.4,3.1,3.9,3.6c0.5,0.5,2.4,0.7,2.4,0.7c0.3-1.4-1.2-1.4-1.1-1.9c0.1-0.5-0.7-1.2-0.9-1.6c-0.2-0.3,1.2-0.3,1.6-0.3
		c0.3,0,1.2,0.7,1.9,0.6c0.7-0.1-0.5-1.1,0-1.1c0.5,0,1.7,1.1,2.6,1.1c0.9,0,1.2-1.2,1.5-1.2c0.2-0.1,0.7,0,1.7,0s1.8,0,3.3,0.2
		c1.5,0.2,1.5,0.8,2.5,0.8s0.8-0.8,0.8-0.8s0.4-0.5,1.2-0.4c0.7,0.1,0.7,0.4,1,1c0.2,0.6,1.3,0.2,2.1,0.3c0.7,0.2,0.7,0.4,1.5,0.7
		c0.8,0.2,3.1-0.5,3.9,0.1c0.8,0.6,3.4,0.1,3.4,0.1c0.2,1.4,2.7,1.4,2.5,1.4c-0.2,0-0.9,1.1-0.9,1.1c-1.4-0.3-1.1,1.1-2.5,1.1
		c-1.4-0.1-1.1,1.3-1.8,1.3c-0.7,0-0.7,3.3-0.7,3.3s1.3,0.1,2.2,0.2s1.2-0.7,1.6-1c0.4-0.2-0.1-1,0-1.4c0.1-0.4,1.5,0,2.5-0.1
		c1-0.1,0.7,0.5,0.8,1c0.2,0.5,1.3,2.6,1.7,2.6c0.3,0,4.2,0.3,5.2,0.2c1,0,4.7-3.8,4.7-3.8s0,0-0.9-0.7c-0.9-0.7-2,1.2-2,0.7
		c0-0.5,0.4-1.2,0.4-1.8s0.6-0.5,0.9-1c0.3-0.5,0-1.2,0-1.6c0-0.4,1,0.4,1.3,0.3c0.3-0.1,0.9,0.9,1.7,1.2c0.8,0.3,1-0.8,1.1-1.3
		c0.1-0.5-0.1-1.8,0.4-2.1c0.5-0.2,0.7-0.4,0.7-1.1c-0.1-0.7,0.7-0.6,0.9-1.1c0.2-0.5-0.2-0.8,0-1.3c0.2-0.5,1.6,0.2,2.2,0.5
		c0.7,0.3,0.6-0.5,0.6-1s0.3-0.5,0.7-0.5s0.7,1.3,1.5,1.1s1.5,0.7,1.5,0.7s11.2,0.3,11.5,0.8c0.2,0.5,1.2,0.1,1.4,0.6
		c0.3,0.5,0.7,1.8,1.2,1.7c0.4-0.2,0.7,0.1,1.3,0.8c0.6,0.7,0.7,0,0.7,0c0.7,0,1.2-1.5,1.2-1.5s0-0.6,0.3-0.9
		c0.3-0.3,0.5,0.4,0.8,0.7c0.3,0.3,2.5,0.2,2.8,0.1c0.4-0.2,0.7-0.7,0.7-0.7s0.3,0.6,1.6,0.3c1.2-0.2,0-0.9,0.9-0.9s1.7,0.1,3.2-0.1
		c-0.3,0.5-0.8,0.5-0.8,1.2s1,1,1.3,1.4c0.3,0.4,0.5,0.6-0.3,1.2c-0.8,0.6-1.4,1.5-1,1.8c0.4,0.3,1.2,0.8,1.7,1.1
		c0.4,0.2,1.1,0.9,1.7,0.8c0.6-0.1,0,0.8,0.7,1c0.7,0.2,2.7,0.2,2.7,0.2c-0.9,0.7-1,1.1-1.1,1.4c-0.1,0.3-0.4,0.8-1.2,1.5
		c-0.7,0.7-1.2,0.1-1.3,0.7c-0.1,0.6,0.2,2.2,1.2,2.2s1.8-0.2,1.9,0c0.1,0.2-0.2,1.4,0.8,1C638.8,678.9,638.5,678.5,639,678.4z"></path>
	<path style="fill:#EB0900;" d="M573.6,655.8c-0.5-0.2-0.9-1.5-0.9-1.5s-0.5,0.2-0.7-0.1s-0.6-0.4-0.7,0.1c-0.2,0.5-0.4,0.8-0.7,0.9
		c-0.3,0.2-0.2,2.9,0,3.7c0.2,0.8,0.5,1.4,0.7,0.7c0,0,0.2-1.2,0.7-0.7c0.5,0.4,0.7,1.2,1.3,1.2c0.6,0,1-1.3,0.8-2
		C573.9,657.4,574.1,656,573.6,655.8z"></path>
	<path style="fill:#EB0900;" d="M552.7,643.2c1.1,0.2,2.5-1.2,2.5-1.2s1.2,0.2,2,0.5c0.8,0.2,0.8-0.8,0.8-1.7
		c-0.1-0.8-0.2-0.8-0.4-1.3c-0.2-0.5,0.6-0.7,0.4-1.2c-0.2-0.5-1.3-0.3-1.7-0.4c-0.4-0.1-0.4-0.6-1-0.9c-0.6-0.3-0.7,0.8-0.7,0.8
		s-0.4-0.2-1.1-0.7c-0.7-0.5-0.7,1.2-0.7,1.2s-0.4,0.7-0.9,0.8c-0.5,0.1-0.4,1.7-0.4,2.1c0,0.4-0.1,0.6-0.4,1.2
		C550.6,643,552.7,643.2,552.7,643.2z"></path>
	<path style="fill:#EB0900;" d="M528.7,648.7c1,0.1,1.8-0.5,2.2-0.8c0.4-0.3,1.7-0.7,1.7-1.2c0-0.4-1-1.1-0.6-1.5
		c0.4-0.4,2.1-0.1,3.1,0c1,0.1,0,1,1.4,1.2c1.4,0.2,1.3-0.8,2.1-0.6c0.7,0.2,0.2,0.8,1.3,1.2s0.8,1.1,1.9,1c1.1-0.1,2.2,0.4,2.2,0.4
		s1.1,0.3,0-2.3c0.2,0.4,1.8-0.9,2.2,0.2c0.3,1.1,0.6,1.6,0.9,1.7c0.3,0.2-0.5,1.2,0.7,1.2c1.2,0,1.9-1.2,1.9-1.2s0.4,1.1,0.8,1.2
		c0.4,0.2,0.7-0.1,1,0.2c0.3,0.3,0.7-0.4,1.5,0.6c0.7,1,1.3,1,1.9,1.1c0.6,0.1,1.7,0.6,1.8,1c0.2,0.4,1.4,0.9,1.8,0.7
		c0.4-0.2,1.8,0.4,2,0.6c0.2,0.2,0.8,1,1.3,0.9s0.9,0.9,1.9,1c1,0.2,1,0.3,2.2,0.4c1.2,0.2,2.3-0.1,2.5-0.5c0.2-0.4,1.7-1.9,0.6-2.4
		c-1.2-0.5,1.2-0.1-1.2-0.5s-5.7,0.2-5.7-0.4c0-0.6,0.5-1.1-0.3-1.5c-0.8-0.5-1.3-0.7-1.3-1c0-0.2,0.1-1.5-0.4-1.6
		c-0.5-0.1-2.2,0.2-2.5-0.3c-0.2-0.5-0.4-0.7-1-0.7c-0.6,0-2.1-0.5-2,0.2c0,0.7-0.3,0.8-0.6,0.7c-0.3-0.2-0.7-0.6-1.2-1.1
		c-0.5-0.5-2.1-2.3-2.4-2.4c-0.3-0.1-1.5-1.6-2.4-1.4c-0.9,0.2-0.6-1.2-0.6-1.2s-1.4-2.4-1.8-1.6c-0.4,0.8-1.1,1.2-1.1,1.2l-1,0.4
		c0,0-0.9,1.2-1.5,0.8c-0.6-0.5-1-1.9-2.2-1.5c-1.2,0.4-0.4,1.2-1.2,1.3c-0.7,0.1-1.9,0.3-2.2,0.1c-0.2-0.2-1.2-1.5-1.7-1.4
		c-0.4,0.1-1.1,0-1.2,0.7c-0.2,0.8-0.8,1.8-1.2,1.6c-0.3-0.2-1.5,0.8-2,0.8c-0.5,0-1.2-0.5-1.2-0.8c0.1-0.4,0.7-1,0-1.2
		c-0.7-0.2-0.8-0.7-1.1-0.4c-0.2,0.3-1.2-1.6-1.2-1.6l-0.4-0.2c0,0,0.3-0.9,0-1.3c-0.3-0.4-0.9-0.5-1.2-0.5c-0.2,0-0.5-0.3-0.9,0.2
		c-0.4,0.6-1.1,1.6-1.6,1.7c-0.5,0.1,0,1.3,0.6,1.6c0.6,0.3,0.5,0.9,1.1,1.3c0.5,0.4,1.3,1.8,0.5,1.6c-0.7-0.2-1.2,0.6-1.3,0
		c-0.1-0.6-0.2-1-1.2-1.7c-0.9-0.7-2.2-1-2.4-1.7c0,0,1.3-0.9,0.8-1.8c-0.4-0.8-0.6-1.7-0.8-2.2c-0.2-0.4-0.8-1.2,0-1.5
		c0.8-0.3,1.7-1.1,1.7-2.5c0-1.4,0.4-2.6,0-3c-0.4-0.3-1.8-1.2-2.1-1.2s-1.1-1.5-1.9-1.9c-0.8-0.4-0.9-1.2-0.9-1.2s1.5,0.1,1.7-0.6
		c0.3-0.7,0.6-0.7,0.8-1.1s1-1.2,0-1.3c-1-0.1,0.1-1.1-0.8-1.9c-0.9-0.7-1.2-2.1-1.7-2.2c-0.5-0.1-2.2-0.3-3-0.9
		c-0.8-0.6-1.3-1.1-1.7-0.9c-0.4,0.2-0.9,1.3-0.9,1.5s-0.4,0.6-1.1,0.9c-0.7,0.2-1.9,1.1-1.9,1.7s0.9,1,1.1,1.4
		c0.2,0.4,0.8,1.2,0.1,1.3c-0.7,0.1-1.5,0.2-1.9-0.3c-0.4-0.5-1-1.1-0.7-1.9c0.3-0.8,0.5-1,0.5-1.7c0-0.7-0.7-1.7-0.6-2.2
		c0.1-0.5,0.7-1.2,0.3-2c-0.3-0.7-0.8-1-1.1-0.8c-0.2,0.2-1.2,0.2-1.5,0c-0.2-0.2-0.3-0.5-1-0.6c-0.7-0.1-2-0.5-2.1,0
		c-0.1,0.5-0.3,0.9-0.8,0.9c-0.5,0,0.1-2.2-0.4-2.7c-0.5-0.5-1-1-1.2-1.2c-0.2-0.2,0.2-1.1-0.5-1.3c-0.7-0.2-1.6-1.5-2.1-1.2
		c-0.5,0.3-1,0.6-1,1.3c0,0.7-0.1,1.6-0.5,1.7c-0.4,0.2-1.9,0.2-2.2,0.1c-0.3-0.1-2,0.6-2.1,1c-0.1,0.4-2.1,0-2.3,0.3
		c-0.2,0.3-0.9,1.5-1.5,1.5c-0.6,0,0-0.8,0-1.5c0-0.7,0-1.7-0.7-2c-0.7-0.3-0.7-1.1-0.7-1.1s1.1-1.3,0-2c-1.1-0.7-2.7-2.4-3.2-2.3
		c-0.5,0.1-1.1-0.1-1-1.1c0.1-1-0.3-3.2,0-3.6c0.3-0.3,1.4-1.1,1.1-1.4c-0.3-0.3-0.8-1.1-1.2-1.5c-0.4-0.4-1.3-0.6-1.3-1.4
		s-0.1-1.7,0.5-2.1c0.6-0.3,1.5,0,1.8-0.6c0.3-0.6,0.7-0.8,0.4-1.2c-0.3-0.3-1.8-0.4-1.2-1.1c0.6-0.7,1.4-1.7,1.2-2.3
		c-0.2-0.6,0.6-0.6,0.5-1.7c-0.1-1.2-1.4-4.2-2.5-5.1c-1.1-0.9-3.2-3.9-3.2-5.2c0.1-1.2,0.2-5.2,0-5.8c-0.2-0.7-1.6-1.8-1.4-2.2
		c0.2-0.4,2.2-0.7,2.3-1c0.1-0.3,0.1-1.6,0.1-1.6s-2,0.1-0.8-0.4c1.2-0.5,1.7,0,1.7-1.3c0-1.3,0.2-5.5,0.6-5.7
		c0.4-0.2,1.2-0.7,1.1-1.7c-0.2-1,1-0.5,0.7-2.3c0,0-1.3-4.8-0.4-4.8c0.9,0,3.2-0.8,3.2-1.2c0-0.3-0.7-1.1-0.6-1.6
		c0.2-0.5,0.6-4.7,1.6-5.3c1-0.6,2.8-3.7,3.3-2.8c0.6,0.8,1.2,2,1.9,1.5c0.7-0.5-0.3-2.6,0.3-2.7c0.7-0.2,2.1,0.6,2.3,0
		c0.2-0.6,0.6-1.7,0.2-1.9c-0.3-0.2-0.5-1.7,0.4-1.3c0.9,0.4,1.4-0.1,1.4-0.1s0.3-1.4,0.3-2.3s-0.1-2-0.7-2.7
		c-0.6-0.7-0.6-2.2-1.3-2.6c-0.7-0.3-3-0.8-4.2-0.7c-1.2,0.2-3.5-0.3-4.2,0c-0.7,0.3-1.7,1.4-2.1,1.4c-0.4,0-0.9-1.5-1.3-1.5
		c-0.4,0-1.7,0.3-1.9,0c-0.2-0.3-2.5-1.2-4.5,0c-2,1.2-0.8,1.6-0.9,2c-0.1,0.4-1.3,0.8-1.1,1.5c0.2,0.7,1.1,1.7,1.1,2.1
		c0,0.4,0.8,0.9,0.6,1.7c-0.2,0.8,0.2,1.7,1.3,1.8c1.1,0.1,2.1,0,2.5-0.2c0.4-0.2,2.1-1,2.1-1.5c0-0.5-0.6-1.7,0.2-1.9
		c0.8-0.2,1.5-2,1.7-1.1c0.2,0.9,0,1.7,0.1,2.9c0.1,1.2,0.5,2.2,0.3,2.6c-0.2,0.4-1.1,1.2-1.4,1.5c-0.3,0.3-1.1,0.8-1.7,1.4
		c-0.6,0.6-1.4,0.4-1.4,1.1c0,0.7,1.1,1.5,1,2c-0.1,0.5-2-0.2-2.2,0.2c-0.2,0.4-0.9,1.4-0.5,2.5c0.4,1.1,1.4,2.2,0.7,2.3
		c-0.7,0.1-4.6-0.4-4.6,0c-0.1,0.4,0.4,1.7,0,2.3c-0.4,0.7-0.6,1.7-1,2.1c-0.3,0.4-1,0.4-1,1.2c0,0.8-2.4,0.9-0.6,2.2
		c1.8,1.3,2.3,0.1,2.7,0.4c0.4,0.3,0.7,1,0.1,1.3c-0.6,0.3,0.5,1.6,0.2,1.9c-0.2,0.3-1.5,0.2-1.5,0.2s-1.7,0.3-1.2,1.3
		c0.4,1-1.9,1.3-1,2.6c0.9,1.2,2.4,1,2.3,1.7c-0.2,0.7,1,1.8,0,2.1s-1.8,0.8-2,1.3c-0.2,0.5-1,0.9-1.8,1.6c-0.8,0.7,0.2,1.6,0.8,2.4
		c0.7,0.8,0.8,0.6,0.8,1.6c0,1,0.5,2.4-0.2,3s-2,1.7-2.2,2.8c-0.2,1.2-1.1,1.9-0.7,4.3c0.3,2.4,1.9,2.4,2.1,3
		c0.2,0.6,0.7,1.2,2.2,1.2c1.4,0,1.1,1.2,1.1,1.2s0.2,3.7,1.7,4.8c1.6,1.2,1.2,1.8,1.2,2.3c-0.1,0.5-1.2,0.3-1.1,2.2
		c0.1,1.9,1.3,1.9,1.8,3.6c0.5,1.7,0.6,1.7,0,2.4c-0.6,0.7-1,1.1-0.8,2.6c0.2,1.5,0.7,0.2,1,1.7c0.3,1.6,0.7,1.7,0.4,2.2
		c-0.2,0.5,0.1,4.2-1,4.8c-1.1,0.7-1.3,0.7-1.7,0.4c-0.4-0.3-0.3-1.2-1.5-1.2s-2.3,0.1-2.7,0c-0.3-0.1-2.1-1.7-2.7-1.6
		c-0.6,0.1-1.1-2.5-1.1-2.5s-0.9-2.2-1.4-2.4c-0.5-0.2-2.2-1.7-2.2-1.7s1.4-0.6,1.4-1.1s0.7-3.3,0.2-4.2c-0.4-0.8-0.7-2.6-1.7-3
		c-0.9-0.4-2.4-0.9-2.7-1.7c-0.2-0.8-0.7-1.3-1-0.9c-0.2,0.4-0.4,1.1-1,0.9c-0.6-0.2-0.8-0.8-0.8-0.8s0.9-0.5,0.8-1.2
		c-0.1-0.7-0.1-1.2-0.4-1.6c-0.3-0.3-0.2-0.2-1.1-0.9c-0.9-0.7-1.2-1.6-0.7-1.6c0.5,0,1.7,0.2,1.7-0.2c0-0.5,1.1-0.3,0.2-4.2
		c-0.8-3.9-1.9-2-1.9-2s-1-2.1-0.3-3.8c0.7-1.7,0.3-2.4-0.2-2.5c-0.5-0.1-0.7-0.5-2.3-0.6c-1.6-0.1-1.8-1.8-1.4-1.7
		c0.4,0.2,1.9-0.7,2.6-1.2c0.7-0.6,1.9,0.2,1.9-0.5c0-0.7-0.5-1.4-0.7-2c-0.2-0.6,0.1-1.2,0.9-1.2c0.8,0,1.4-0.4,1.2-1.7
		c-0.2-1.2-0.7-1.3-0.9-1.6c-0.2-0.2-1.2-2.3-1.9-2.7s-2.1-1.6-2.7-1.7c-0.7-0.1-0.8-1.8,0.2-1.8s1.3-1.8,2.1-1.8c0.7,0,1-1.4,1-1.4
		s0.2,0.8,0.7-1.5s-0.3-2.8-1-3.2c-0.7-0.4-0.1-2.1-1-2.7c-0.9-0.7-1.4-2.3-2.8-2.3c-1.4,0-4.4,0.8-4.4,0.8s0.1,0.9-0.7,1
		c-0.7,0.1-2.9-2.8-3.6-2.3c-0.4,0.3-1.3,0.9-1.9,1.7c-0.5-0.2-1.2-0.6-1.2-0.6s-4.8,3.9-4.3,4.8c0.5,0.9,1.7,1.3,1.7,1.7
		c0,0.3-1.7,1.9-1.2,3.2c0.5,1.2,2.8,4.7,0.8,5.8c-2,1.2-3.7,1.9-3.7,2.8c0,0.9,0.7,2.7,0.2,3.2c-0.6,0.4-0.5-0.5-1.7-0.1
		c-1.2,0.4-2,0.9-2,0.9s-1.3-2.9-1.9-3c-0.6-0.1-2.7-1.7-4.1-1.5c-1.4,0.2-1.7,0.5-2.5,0.7c-0.7,0.2-1.2-0.3-1.7-0.1
		c-0.6,0.2-1.3,0.7-1.7,1.5c-0.4,0.7-0.9,1.2-1.2,0.9c-0.3-0.2,0.3-1.2-0.6-1.2c-0.9,0-1.3,0.3-1.6,0.6c-0.2,0.2-0.9-0.4-1.2-0.8
		c-0.2-0.4-0.4-2.1-1-2.2c-0.6-0.1-4.3-2.6-5.3-2.3c-1,0.3-0.8-3.8-0.6-4.1c0.2-0.3,1.8-2.9,1.8-2.9s-0.7-2.7-0.1-3.5
		c0.6-0.7,0.7-2.7,1.4-2.7c0.7,0,2.2-0.3,2.2-1.8c0-1.5,1.2-2.7,1.1-3.9c-0.2-1.2,1.5,0,2.2-0.4c0.7-0.4,2.4-2.4,2.5-2.7
		c0.1-0.3-0.2-1.7,0.4-1.8c0.7-0.2,1.6-0.8,1.3-1.5c-0.2-0.7-0.3-2.2-0.8-2.5c-0.5-0.2,0.1-2.6-0.3-2.7c-0.4-0.2-0.7,0-0.7,0
		s-1.3-1.5-1.6-1.3c-0.2,0.2-1-1.9-1.7-1.9c-0.7,0-1.2,1.3-1.2,1.9c0,0.6-2.1,1.5-2.2,2.4c-0.1,0.9,0.2,2.2-0.1,2.3
		c-0.3,0.2-1.2,0.8-1.4,1.3c-0.2,0.5-0.2-1.2-0.7-1.1c-0.6,0.1-2.4,0.7-2.2,1.6s-0.1,1.4,0,2.2c0.1,0.7-0.9-0.2-1-0.6
		c-0.2-0.4,0.1-1.3-0.7-1.4c-0.7-0.1-6,4.2-5.8,4.7c0.2,0.6,0.3,2.3,0,2.7c-0.3,0.3-2.2,1.2-1.9,2.2c0.2,1.1,1.7,1.2,1.2,1.7
		c-0.5,0.6-2,1.2-1.8,1.9c0.2,0.7-0.8,0.7-1.3,1.6c-0.5,0.9-0.5,1.1,0,1.8c0.5,0.7,0.5,1.8,0.2,2.6c-0.2,0.7-1,1.1-1,1.7
		c0,0.6-0.2,2.4,0,3.6c0.2,1.2,1.2,1.5,0.7,1.9c-0.5,0.4-1.8,0.7-1.9,1.4c-0.1,0.7-0.8,2.2-0.9,1.1c-0.1-1.1-0.1-1.4-0.4-1.8
		c-0.3-0.4,0-0.9,0-1.4c0-0.5-0.6-0.9-0.9-1.4c-0.3-0.5-0.3-0.6-1.1-2.4c-0.7-1.8-2.1-2-2.6-2c-0.5,0-1.5,3.7-2.7,3.8
		c-1.2,0.1-2.3-0.4-2.7-1c-0.3-0.6,1.2-0.2,0-1.5c-1.2-1.2-1-2.7-2-3.2c-1-0.5-1.8-1.6-2.2-1.3c-0.4,0.2-0.7,2.4-1.8,2
		c-1.2-0.4-1.4-1.5-2.5-1.5c-1.1,0-2.1-0.3-2.1-0.5c0-0.2,0.7-1.4,0-1.7s-0.8-1.3-1.6-1.6c-0.7-0.2-1.5,0.5-2.1,1.1
		c-0.6,0.6-0.7-0.2-1.9-0.2c-1.2,0-1.4,0.6-1.4,0.6l-1.7-1.1c0,0-2.7-2.2-3.2-1.5c-0.5,0.7-2.1,0-2.7,0.7c-0.7,0.7-3.4-1.8-3.4-1
		v0.2c0,0-3.7-1.2-3.6-2.6c0.2-1.3,0-3.2,0.2-3.8c0.2-0.7-0.8-2.5-1.8-2.2c-1,0.2-3.5,1.7-3.5,1.7s-0.4,1.8-1,1.8
		c-0.7,0-1.2-1.8-0.5-2.6c0.7-0.7,2.7-1.4,2.8-2.4c0.2-1-1.2-2.5-0.2-2.5s1.7,0,2.2,0s1.8-1.5,1.8-2.8s-0.3-2.9-0.3-2.9
		s0.8-1.8,0-3.1c-0.8-1.3,0.2-1.7,0.2-1.7s-0.1-1.7,1.8-1.7c1.9,0,2.9-2.7,2.4-3.2c-0.5-0.5-1.7-1.2-1.9-1.7
		c-0.2-0.5-0.8-0.4-0.8-1.8c0-1.4-0.5-3.7-0.5-3.7l-0.8-1.2h-1.5c0,0-2.2-1.6-2.5-2.8c-0.3-1.2-1.1-1.5-1.1-1.5s-2.1-3-2.1-3.8
		s0.7-1.6,0.7-1.6l1.4,0.7c0,0,2.2-1.3,2.9-0.7s2.8,2,3.8,1.6c1-0.4,0.4-4.1,1.2-4.6c0.7-0.5,3.7-3.3,2.2-3.7
		c-1.5-0.3-2.2,0.2-2.7,0c-0.5-0.2-1.8-2.3-2.7-2.7c-0.8-0.3-1-1.8-1-1.8l-2,1.8c0,0-1.5-1.8-1.1-3c0.4-1.2,0.1-1.2,0-2.2
		c-0.1-1-2.1-3.3-2.6-3.2c-0.5,0.2-1.2-1.3-1.2-1.3s-2.7-4.5-3.3-4.7c-0.7-0.2-4.7-2.2-5.7-1.3s-1.8,1.5-1.5,2.2
		c0.3,0.7,0.8,2.5,0.8,3.3c0,0.8,0.9,2.8-0.2,3c-1.2,0.2-3.2-1.3-3.2-1.3s-1.5-0.2-1.8,2.2c-0.3,2.3-2,0.8-1.7,2
		c0.3,1.2,1.5,0.7,3,1c1.5,0.3,1.2,1.2,0.5,1.5c-0.7,0.3-0.8,1.3-1,1.8c-0.2,0.5-0.7,0.5-1.5,1c-0.8,0.5-0.6,2.5-1,2.7
		c-0.5,0.2-1-2.8-1.6-3.7c-0.7-0.8-0.5-1.2-1.2,0c-0.7,1.2-0.7,2.2-1.8,2.5c-1.2,0.3-1.8,0.8-1.8,1.7c0,0.8-2.2,0.4-2.2,1.3
		c0,0.9,0.7,1.9,0,2.9c-0.7,1-2.5-0.7-2.5-0.7s0.5-1.2-0.8-1.2c-1.3,0-2.5,0.3-3.2,0.3c-0.7,0-2.2-0.7-2.2-0.7s0.2-2,0-2.3
		c-0.2-0.3-2-0.3-2.3-1.3c-0.3-1-5.2-6-6.8-5.7c-1.7,0.3-4.3,2.1-4.3,2.1s0.2-4.3-1.2-4.1c-1.3,0.2-3.3,2.5-3.3,2.5s0.7,2.2,0,2.7
		c-0.7,0.5-1,1-0.8,1.7c0.2,0.7,0.8,0.5,1,1.3c0.2,0.8-1.4,1.2-1,2.5c0.4,1.2-0.1,2.2-0.1,2.2s-2.6,2.2-3.6,2.2
		c-1,0-1.8-1.3-2.2-0.8c-0.3,0.5-1.5-0.8-2.3-0.3c-0.8,0.5-4,3.2-4,3.7s-0.5,1.3,0,2.3c0.5,1-0.2,1.8-0.2,1.8s-3.8,3.7-3.8,2.4
		c0-1.3,1.7-2.8,1.7-2.8s0.4-5,0.7-5.3c0.3-0.2,4.3-3.7,4.3-3.7v-1.7c0,0,1-3.1,0.8-3.8c-0.2-0.7,1.5-3.3-0.2-4.8
		c-1.7-1.5-0.2-2.7-0.2-2.7s-0.8-2.7,0-2.7c0.8,0,4,0.8,5.8-0.3c0,0,2.8,1.5,3.7,0.2c0.8-1.3-1.7-2.3-1.7-2.3s0.2-2.2,1.5-2.2
		c1.3,0,1.7-2.2,2.5-3.8c0.8-1.7-0.3-3.3-0.5-4.3c-0.2-1,0.8-1,1.8-1c1,0,2.8-2.8,2.2-3.3c-0.7-0.5-2,0-2,0s-1.8-2-3-2
		c-1.2,0-1.8,0-1.8,0s-4.3-3.3-4.8-3.2c-0.5,0.2-1.3,0.7-1.3,0.7s-1.7-1.5-2-2.3c-0.3-0.8-0.3-2.3-1.3-2.3c-1,0-0.2-3.3,1-2.2
		c1.2,1.2,1.7-0.2,1.7-0.2s0.3-1.3,1.2-1.3s1.8-2.5,1.3-2.8c-0.5-0.3-1.2-2.7-1.8-2.7c-0.7,0-1.8,1-1.8,1l-1.8-1c0,0,0-3.3-0.8-4
		c-0.8-0.7-3.2-2.5-5-2.2c-1.8,0.3-3.8-0.7-4.7,0c-0.8,0.7-2.7,2.9-3.3,4c-0.7,1.2,0,2.8-0.8,3.5c-0.8,0.7-2.2,1.5-2.2,1.5
		s1.2-2,0-2c-1.2,0-0.8,0.8-1.7,1.3c-0.8,0.5-2.5,0.3-2.5,0.3s-0.5-0.8-2-0.8s-2.5,0.8-2.5,0.8s-2.3-1-2.3-0.5c0,0.5,0,2.8,0,2.8
		l-0.7,1.2c0,0-2.8-1-3.5-0.3c-0.7,0.7-1,2.3-1,2.3s2.3,0.3,2.3,0.8c0,0.5,0.2,2-0.7,2.3c-0.8,0.3-2-0.5-2.5-0.3
		c-0.5,0.2-0.8,1.5-1.8,2.2c-0.1,0.1-0.2,0.2-0.3,0.2c-0.7,0.4-2.3,0.9-2.3-3.7c0,0,0.7-2.9,2-3c1.2-0.1,1.9-1.7,2.1-2.2
		c0.2-0.5,1.9-0.2,2.1-1.5c0.2-1.2,0.5-2,0-2.5c-0.5-0.5-1.1-1.6-1.6-0.9c-0.5,0.7-0.8,1.2-1.4,1.1c-0.5-0.1-0.5-1.7-1.9-1.4
		c-1.4,0.4-2.9-0.1-2.9-0.1s-1.6,1.2-2.1,0.6c-0.5-0.6-1.2-0.9-1.9-1.4c-0.6-0.5-2.1-1-2.5-1.1c-0.4-0.1-1.7-1.7-1.4-2.6
		c0.4-0.8,0.1-1.9-0.1-2.1c-0.2-0.1-0.7-0.9-1.3-0.9s-2.9-1.9-3.5-1.2c-0.6,0.7-2.7,1.6-1.9,2.1c0.8,0.5,1.1,1.4,0.7,2.1
		c-0.4,0.7-0.9,2.2-0.9,2.2s0.2,0.9,0.2,1.6c-0.1,0.7-0.8,1.5-0.8,1.5s-0.7,1,1.9,2.1c2.6,1.1,2,2.9,1.6,3.1c-0.4,0.2-1.5-0.2-2-0.7
		c-0.5-0.5-0.6-0.5-0.7-1.7c-0.1-1.2-2.2-3.6-2.6-2.7c-0.4,0.9-1.4-0.1-2.1,0c-0.7,0.1-1.5-1.6,0-1.6s2.9-0.2,2.9-0.7
		c0-0.5,0.2-1.2,0.1-1.7c-0.1-0.5-0.1,0-0.1-1.2c0-1.2-0.7-2.6-1.6-2.8c-0.9-0.2-2.4,0.6-2.7,0.7s-2.1-0.1-2.6,0
		c-0.5,0.1-1.2-2.1-1-2.1c0.2,0,2.2-2.2,2.1-2.9c-0.1-0.7-1.4-0.9-1.4-0.9s-1.2-1.5-2.1-1c-0.9,0.5-0.1,0.9-1.4,1.1
		c-1.2,0.2-2.6-0.4-2.7,0.2c-0.1,0.6,0.4,1,0,1.9c-0.4,1-1.2,1-2.1,0.6c-0.9-0.3-2.6-3.2-3.7-2.3c0,0,0.1-2,0.2-2.4
		c0.1-0.4,2.1-1.5,2.1-1.5s-0.2-1.4-0.1-2.1c0.1-0.7,0.1-0.5,1.7-1c1.6-0.5,0-1.4,0-2.4c0-1-0.4-1.7-1.4-2.1c-1-0.4-2,2-2.4,2.1
		c-0.4,0.1-1.5-1-1.5-1c0.7-1.9,0-1.6,0-2c0-0.4-1.7-0.1-2,1.4c-0.2,1.5-1.4,0.9-2.1,0.4c-0.7-0.5-2-0.4-2-0.4s-0.9,2.4,0.2,2.7
		c1.1,0.4-0.6,1-1.7,1.5c-1.1,0.5,0,3.4,0,3.4s-1,0.6-1.7,1.4c-0.6,0.7,3.4,2.6,3.4,2.6c1.2,0.6,3.2-0.9,3.2-1.6s1.9,0,2.1,0.5
		c0.2,0.4,0.4,1.1,0.8,1.6c-0.5,0.8-0.8,1.6-1.4,2c-0.9,0.7-2,2.3-2,3c0,0.8,0.3,2.2,1.5,2.3c1.2,0.1,1.8,1.8,1.8,1.8
		s-0.2,0.1-1.4,0c-1.1-0.1-2.2-1.2-2.4,0c-0.1,1.2,0,2.6,0,3.2c0,0.6-1.4,0.1-1.1,1.6c0.2,1.5,3.4,2.9,4.1,3.2c0.7,0.4-1,0.6-1,1.4
		c-0.1,0.7,0.7,2.4,0.7,2.5c0,0.1-1.9,3.1-2.4,3.7c-0.5,0.6-2.6,0.2-2.5,1.6c0.1,1.4,0.5,2.1,0.5,2.6s0.6,2.7,1.2,2.5
		c0.6-0.2,1.9-2.2,2.4-2c0.5,0.2,0.4,1,0.8,1.4s1.5,1.3,2,0.6c0.5-0.6,0.9-1.5,2.2-0.8c1.4,0.7,2.7,1.5,2.6,2c-0.1,0.5-0.3,0.9,0,2
		c0.3,1.1-0.6,2.4,1,1.6c1.6-0.7,2.4-2.2,3-2.2c0.6,0,2,0,2.6,0.4c0.6,0.4,2.4,2,2,2.1s-2.9,0.6-2.7,1.9c0.1,1.2,1.1,2.5,0.5,2.6
		c-0.6,0.1-0.5,1.6,0.5,1.6c1,0,1.4-0.4,1.7,0c0.4,0.4,1.4,1.1,2.1,0c0.7-1.1,1.6-0.6,2.2-0.2c0.6,0.4,2,1.9,2.9,0.8
		c0.9-1.1,1.7-2.2,1-2.7c-0.7-0.5-2.4-4.7-1.5-5.1c0.9-0.4,1,1,2,1.2c1,0.2,2.2,0,3-1.2c0.7-1.2,1.2-2.6,2.7-3.1
		c1.5-0.5,2-2.6,1.1-3s-6-2.1-3.9-3c2.1-0.9,4.7-5.1,5-4.1c0.2,1,1.5,0.5,2,0.1c0.5-0.4,1.6-1.7,1.7-1c0.1,0.7,0.7,1.7,0.7,1.7
		s0,2.7-0.4,3.2c-0.4,0.5-1.6,2.5-1.1,3.2c0.5,0.7,2,0.2,0.5,0.7c-1.5,0.5-2.4,2.9-2.2,3.4c0.1,0.5,0.4,1.5,0.4,1.5
		s-1.5,0.2-1.4,1.2c0.1,1,0.6,2,1,2.5c0.4,0.5,0.2,1.7-0.2,2.6c-0.5,0.9-1.7,3.5-1.1,5.4c0.6,1.9,1.1,2.9,0.5,3.7
		c-0.6,0.9-3.7,0.4-4.2,0.7s-2.5,0.9-2.9,1.4s-1.2-1.1-2.4-0.7c-1.1,0.4-1.7,1.7-1.4,2.4c0.4,0.6,1.7,0.6,2,1.5
		c0.2,0.9-0.2,3.4-0.4,4c-0.1,0.6,0.1,0.9-0.2,1.7c-0.4,0.9,0,2.2,0,2.2s-2.5-0.9-3.1,0c-0.6,0.9-0.1,0.5-1.2,0
		c-1.1-0.5-1.4-1.4-1.9-1.4c-0.5,0-0.6-1.7-1.9-1.5c-1.2,0.2-2.2,0.6-2.2,1.2c0,0.6-0.2,1.1-1.1,1.1c-0.9,0-2.4-1.5-2.1-2
		c0.2-0.5-0.1-2.9-0.1-2.9l-0.6-1.6c0,0,0.7-1.4,0.5-1.9c-0.2-0.5-0.7-2.4-1.1-2.4c-0.4,0-0.1,0.7-1.3-0.2c-1.2-1-1.5-0.9-1.6-1.6
		c-0.1-0.7-0.4-0.9-1.2-0.9c-0.9,0-1.7,1.6-1.7,1.6s-1,0.9,0.1,2.1c1.1,1.2,1.7,1,1.7,1.6c0,0.6-0.6,0.5-0.9,1.2
		c-0.2,0.7-0.9,1-0.9,2.2c0,1.2,0.6,1.5,1.1,1.7c0.5,0.2,1,0.5,1,0.9c0,0.4-0.4,1.1-1.5,1.1s-0.2,0.7-0.2,1.9c0,1.2,0.2,2,0.6,2.2
		c0.4,0.2,3.2,4,3.5,3.7c0.3-0.2-0.7-2.1,0-1.7c0.7,0.4,1.2,1.1,2.2,1c1-0.1,3.1-0.5,3.4,0c0.2,0.5,0.2-2,0.7-1.4
		c0.5,0.6,3.4,0.4,3.6,1.5c0.2,1.1-1.1,0.6-1,1.2c0.1,0.6,0.5,4.1-0.6,3.6c-1.1-0.5-2.1-2.7-2.7-2.6c-0.6,0.1-1.4-1.5-2-0.9
		c-0.6,0.6,0.1,1.5,0.1,2.2c0,0.7-0.1,0.8-0.6,1.3s-1.6-0.5-1.7,0c-0.1,0.5,1,0.3,1,1.6c0,1.2,0.2,2.4,1.1,2.5
		c0.9,0.1,1.7-0.9,2.1,0c0.4,0.9,1.9,0.9,1.2,1.2c-0.6,0.4-1.1,0.7-1,1.4c0.1,0.6,1.9,3.5,1.7,4.1c-0.1,0.6,1,0.6,1,1.1
		c0,0.5-0.6,3.1,0.7,2.1c1.4-1,5.1-4.7,5.1-5.4s-2.5-0.2-2.7-0.6c-0.2-0.4-0.4-2.1,0.4-2.4c0.7-0.2,3.7-1.9,3.4-0.5
		c-0.4,1.4-1,2.1-0.5,2.5c0.5,0.4,1.1,0.1,1.1,1s0.2,3.5-0.2,4.2c-0.5,0.7-2.6,2.4-3,3.6c-0.4,1.2-1.1-0.5-1.6,0.7
		c-0.5,1.2-1.2,1.9-1.2,1.9s-0.6-1-1.1-1.4c-0.5-0.4-2.7,0.1-1.9,0.7c0.9,0.6,1.6,0.9,2.7,2.1c1.1,1.2,2.9,0.2,3.4,0
		c0.5-0.2-0.1,2.2,0.6,3c0.7,0.7,1-1.2,1.6-1.2c0.6,0,2.5-0.5,2.5-1.1c0-0.6-1-2.1,0.4-2.1s4-1.1,4.2-0.1c0.2,1,0.6,1.2-0.4,1.6
		c-1,0.4-1,1.5-1,1.9c0,0.4,0.7,0.6,0,1.9c-0.7,1.2-2.6,3.4-2.7,3.7c-0.1,0.3,0.2,0.7,0.2,1.8c0,1.1,1.6,2.1,1.9,2.9
		c0.2,0.7,1.4,0.7,1.5,2c0.1,1.2,1.9,1,2.5,2c0.6,1,2,2.5,2.4,2.5s1.2-1,1.7-1.7c0.5-0.7,1.4-1,0.9-2.2c-0.5-1.2-0.9-2.5-0.9-3.4
		c0-0.9-0.2-0.9-1.1-1.5c-0.9-0.6-1.4-1.6-1.4-1.6s-1-0.1-1.6,0.5c-0.6,0.6-1-1.2-1-1.2s2.1,0.3,1.9-1c-0.2-1.3,0-0.2-0.2-1.3
		c-0.2-1.1,0.6-3.1,1.4-3.1c0.7,0,1.1,1.5,1.7,1.4c0.6-0.1,1.4-0.2,1.7-0.1c0.4,0.1,0,0.5-0.1,1.5c-0.1,1,0.2,2.2,0.6,2.7
		c0.4,0.5,0.4,1.3-0.2,2.2c-0.6,0.9-1.1,2.7-0.4,3.1c0.7,0.4,1,1.5,2.9,2c0,0,4,1,5,1.2c1,0.1,1.8,1,2,1.8s0.5,2.5,1.8,3
		c1.3,0.5,0.3,1.3,1.8,1.8c1.5,0.5,2.3,2,2.3,2.5c0,0.5-2.2,1.8-2.3,2.3c-0.2,0.5-2.3,1.7-1.3,2c1,0.3,1.7,1.2,1.7,1.2
		s-0.7,0.7-1.5,0.3c-0.8-0.3-2.7-3-3.5-2.5c-0.8,0.5,0,1.7,1,2.5c1,0.8,0.3,2.7,0.3,3.5c0,0.8,0.5,2.5,1,2c0.5-0.5,2.3-1.7,2.7-1.2
		c0.3,0.5,1.5,2.8,2.2,2.7c0.7-0.2,1.3-2,2.3-2s1.7,0.2,1.7,0.2s-0.2,3,1,3c1.2,0,1.3-0.5,2.7,0c1.3,0.5,2.2,1.2,2.2,1.2
		s-1.7,1.5-1.2,2.8c0.5,1.3,0.7,2.3-0.2,2.7c-0.8,0.3-2,2.2-1.3,2.8c0.7,0.7,0.5,2.2,0,1.8c-0.5-0.3-3-0.7-3-0.7s-3.2,0.8-1.9,2.4
		c1.3,1.6,3.4-0.1,4.2,0.4c0.8,0.5,2,1.8,2.3,3c0.3,1.2,2,4.3,2.7,2.8c0.7-1.5,1.5-3.6,0.7-4c-0.8-0.3-1.2-1.8-1.2-1.8
		s0.3-1.3-0.5-2.3c-0.8-1-2.2-2.5-0.8-2.8c1.3-0.3,3.8-0.3,4.2-1.8s0.3-2,1.3-2s1.5,1.8,3,2.3c1.5,0.5,5,2.5,5.7,3.2
		c0.7,0.7,1.3,1.5,1.7,2.8c0.3,1.3,1,2.8,0.5,3s-1.5,0.5-1.3,1.7c0.2,1.2,2.3,2.2,2.8,3.5c0.5,1.3-0.8,2.2-0.8,3.2s1,1.3,1.7,1.2
		c0.7-0.2,2.7-1.7,3.2-1.3c0.5,0.3,0.7,1,1.7,0.2s1.7-1.3,2.3-0.7c0.7,0.7,2.2,4.2,5,6.5c2.8,2.3,6,9,5.5,10.3
		c-0.5,1.3-3.5-2.5-3.8-1.7c-0.3,0.8,0.7,2.5,0.7,2.5s-3.2,0-4.3-0.2c-1.2-0.2-2.7,0.7-2.7,0.7s-2.3,0.5-3-0.5
		c-0.7-1-3.8-4.8-4.5-4.7s-1,2-0.3,3c0.7,1,3.3,4.3,4.5,4.8c1.2,0.5,2.3,0.5,2.8,1.2s4.8,2.5,5.3,3.2c0.5,0.7-0.3,1.8,0.5,1.8
		c0.8,0,1.8-0.5,2-1.3c0.2-0.8,2.3-0.5,2.3-0.5s0,2.2,0.7,2.7c0.7,0.5,1.8,0.3,2,1.2c0.2,0.8-2.5,1-1.3,2.8s2.3,3.5,2.7,4.7
		c0.3,1.2,2.8,2.2,3.5,1.7c0.7-0.5,2,1,2.2,1.7c0.2,0.7-0.7,2.2-0.2,3.2c0.5,1,1.5,4,0.8,3.7c-0.7-0.3-1.7-3.3-2.3-3.3
		c-0.7,0-1.3,1.2-1.3,1.7c0,0.5-1.5,1.7-1.5,1.7l-3-0.5l-0.7,0.3c-1.1-1.1-2.9-2.2-3.1-2.8c-0.5-1-0.3,2.8-0.3,3.6c0,0.8-1,2-2.3,2
		c-1.3,0-0.2,2.3-1.7,1.3s-2.8-4.8-2.8-4.8c-0.2-6-2.3-5.5-2.2-8.6c0.2-3.1-2.3-3.7-1.8-5.4c0.5-1.7-3-5.3-3.4-5.8
		c-0.4-0.5-1.4-1.8-2.1-3c-0.7-1.2-3.2-1.5-4.3-1.8c-1.1-0.3-2-3.3-2.2-4.5c-0.2-1.8-2.3-5.2-2.3-5.2s-1.8-1-4,4.3
		c-2.2,5.3,1.7,1,1.7,1s1.7-3.5,2.5-1.8c-1.3-0.7,0,2.3,0,2.3s1.2,3,1.8,4c0.7,1,4.2,2.5,4.2,2.5s0.8,0.5,0.3,1.5
		c-0.5,1-0.3,1.8,0,2.7c0.3,0.8,1.7-1,3,0c1.3,1,0.7,3.2,0.7,3.8c0,0.7-0.3,1-0.7,1.8s2,1.5,2.9,1.8c0.9,0.3,1.4,2.2,1.8,2.8
		c0.3,0.7,0.2,1.2,0.5,2.5c0.3,1.3,0.2,4.3,0.2,4.8c0,0.5-1.8,0.7-2.3,0.8s0.1,2.7,0.1,3.3s-0.5,1.5,0.8,2.7c1.3,1.2-0.2,2.5,0,3.5
		c0.2,1,1.8,0,3.8-1c0.7-0.3,1-0.5,1.1-0.7c0.3,0.5,1.2,1.9,2,2c1,0.2,0,3.3,0,3.3h4.6c0,0-0.6-3.8,0-4.6c0.7-0.8-0.2-1.5,0-2.7
		c0.2-1.2,1.2-1.7,1.8-2.7c0.7-1,2.1-1.1,2.1-1.1c1,1.1,2.3,2.4,3,2.8c1.3,0.8,5,2.6,6.1,8.2l25.6,0.2l10.8-0.2c0,0-0.7-3.1,1-2.6
		c1.7,0.5,2,0.1,2.7-0.1c0.7-0.1,2.3,1.3,3.4,0v2.6h29.2c0,0-1.2-3.5,0-4.5c1.2-1,1.5,1,1.8,1.9c0.3,0.9,1.8,0,1.8,0s5-0.7,6.5,2.6
		h59l0,0.2l69,0.1c0,0,0.6-4.1,0.7-4.5c0.2-0.4-0.5-0.8-1.3-0.4c-0.8,0.4-1.9,0.7-2.5,0c-0.6-0.7-1.3-1.1-1.3-1.1s-1.3,1.4-2.2,0.4
		c-0.9-1-1.2-1.4-0.1-1.3c1.2,0.1,2.2,0.1,2.8,0.3c0.6,0.2,2.1-1.2,3.3-0.6c1.2,0.7,2.4,0.5,2.4,0.5l0-0.5c0,0,0,0,0,0
		c0,0,0.7-1,1-1.8c0.3-0.8-0.1-2,0.8-2c0.9,0,2.5,0,3.1,0C526.3,647.9,527.7,648.7,528.7,648.7z M261.2,484.8
		c-1.8,0-2.7,1.9-2.7,2.7c0,0.8-1.2,1-0.7,2c0.5,1,0.3,1.8,1.5,2.3c1.2,0.5,1.7,0.7,1.8,1.2c0.2,0.5-0.5,1.7-0.5,1.7s1,0.7,0.3,1.8
		c-0.7,1.2-2.3,1.3-2.3,2.2c0,0.8-1.2,4,0.8,5.2c0,0-1.3,1.2-1,1.8c0.3,0.7,1.7-0.2,2.2,0.8c0.5,1,0.2,1.8,0.2,1.8s-2.2-1-2.5,0
		c-0.3,1,0.2,5.3,0.7,5.2c0.5-0.1,0.7,1.8,0.7,1.8s-1,1.2-1,2.6c0,1.3,0.3,2.6-1.2,2.4c-1.5-0.2-2.2-1-1.7-1.5
		c0.5-0.5,1-2.3,0.2-2.5c-0.8-0.2-2-0.2-2-0.2l-2-2.6h-4.5c0,0-2.7-1.2-3.5,0c-0.8,1.2-0.8,3.1-1.8,1.8c-0.7-0.9-2.2-2.5-3.1-3.3
		l-0.6-1.3c0,0-3.1-1.2,0.5-3.1c0.4,0.9,1.1,1.8,2,1.6c1.7-0.3,3.3-5.7,5.2-4.8c1.8,0.8,4.2-0.5,4.2-0.5s2,0.5,2.5,0.2
		c0.5-0.3,2.5,0.7,3-0.3c0.5-1,2.2-1.9,2.2-1.9s0.2-1.6-0.5-2.1c-0.7-0.5-1.2-1.8-1.2-1.8s-3-1.3-1.8-1.5c1.2-0.2,2.7-3.3,2.2-3.7
		c-0.5-0.3-1.8-0.5-1.8-0.5s-1.2-0.7-1.3-1.8c-0.2-1.2,0.2-2.7-1.2-2.7c-1.3,0-3.3,1-3.3,1.8c0,0.8-2.3,0.3-2.8,0.7
		s-3.7,2.8-3.8,2.3c-0.2-0.5,0.3-2.7-0.3-3c-0.7-0.3-0.8-2.2,0.3-2.3c1.2-0.2,2.2-1.2,2.2-1.7c0-0.5-0.3-1,0.7-0.9
		c1,0.2,3.2,0,3.2,0s1.2-0.3,1.2-1.1c0-0.8,1.3-1.7,1.3-1.7s0.5-0.2,1.3,0.5c0.8,0.7,2.3,0.2,2.8,0c0.5-0.2,0.3,0.5,1.3,1
		c1,0.5,3,1.3,3,1.3l1.8-1.5C261.2,483.3,263,484.8,261.2,484.8z M287.3,548.8c-0.2,0.8,0.3,2.8-2.2,2.5c0,0-2.3,0.5-2.3,1.9
		c0,1.4,0.3,2.1,0,3.2c-0.3,1.1-4,3.1-3.8,1.4c0.2-1.7,0.5-1.8,0-2.2c-0.5-0.3-4.3-1.5-3.7-2.4c0.7-0.9,2-1.9,2-1.9
		s-4.5-2.3-2.1-2.3c2.4,0,3.2-0.8,3.2-0.8l1.4-1.2h2.3c0,0-0.8-3.3,0-2.9c0.8,0.4,3,3.1,3,3.1S287.5,547.9,287.3,548.8z
		 M300.1,551.2c-0.2,0.4-0.2,2-1.3,1.3c-1.2-0.7-3.4,0.6-2.8-2.4c0,0-0.9-1.9-1.6-1.9s-2.5-1.5-2.3-2.2c0.2-0.7-0.7-3.3,0-2.9
		c0.7,0.4,0.5,0.5,1.8,1c1.4,0.5,3.9-0.7,3.5,0.8s0.1,1.8,0,2.5c0,0.7,0.6,1,1.6,1.7C300.1,549.6,300.3,550.8,300.1,551.2z
		 M441.8,558.2L441.8,558.2c0.9,0.3,0.6,1.3,1.9,1.6c1.2,0.3,2.2,0.5,2.7,1.3c0.5,0.8,1.4,1.9,0.8,2.5c-0.6,0.6-1.2,1-1.2,1.9
		c0,0.7-0.7,0.4-1,0.9c0-0.3-0.1-0.4-0.1-0.4s-2-0.6-1.9-1.1c0.1-0.5,1.6-2.4,0.7-2.9c-0.8-0.5-1.8,0.7-2.1,0.4
		C441.4,562.2,441.7,559.7,441.8,558.2z M446.1,599.8c-0.1,0.2-0.2,0.5-0.4,0.7c-0.3-0.2-0.5-0.3-0.8-0.4c-2.2-0.4-3.3-0.5-4.1-1.7
		c-0.7-1.2,1.2-1.5,1.1-3.3c0,0,1.7-2.1,1.4-2.8c-0.3-0.7-1-1.6-0.8-1.9c0.2-0.2,0.2-1.9,0.2-2.2c0-0.3,2-2.2,1.3-3.2
		c-0.7-0.9,0-1.5-0.7-1.8c-0.6-0.3-1.5,0.2-1.8,0.5s-1.7-1.4-2.8-0.6c-1.2,0.8-1.9,0.1-2.5,0.4c-0.6,0.3-0.3-0.2-1.3,0.7
		c-1,0.8-1.2,1.2-1.9,0.6c-0.7-0.7-1.9-0.3-0.9-1c1.1-0.7,3.1-2.3,2.6-3.3c0,0,7.9-7.6,9.8-9.6c0.1,0.3,0.3,0.6,0.5,0.9
		c1.5,1.9,1.1,3.2,1.1,3.2s0.9-0.3,1.2,1.2c0.2,1.6-1.2,0.4-1.2,1.8c-0.1,1.4,0.7,2.5,0.9,3.3c0.2,0.8,0.1,2.9,0.8,2.4
		c0.7-0.5,2-0.1,2.2,0.4c0.2,0.5,0.8,2,0,2c-0.8,0-1.4,0.7-1.4,1.5c0,0.7,0.4,1,0.8,1.5c0.4,0.5,0.7,1.8,0.6,2.4
		c-0.1,0.6,1.2,1.2,1.2,1.9c0,0.7-0.2,1.6-0.2,2.2c-0.1,0.6-1.3,1.9-1.9,2.4C448.4,598.4,446.5,598.6,446.1,599.8z M456.3,608.7
		c-0.8,0.4-2.4-0.2-2.7,0.2c-0.3,0.4-0.4,1.7-1,2.5c-0.6,0.8-1.8,1.7-1.9,1.5c-0.1-0.2-1.3-1.4-1.3-2.1c0-0.5-0.5-1.1-0.9-1.5
		c0.1-0.2,0.2-0.4,0.3-0.6c0.3,0.2,0.6,0.3,0.9,0.2c0.5-0.1,0.8-1.1,1.3-1.2c0.5-0.2,0.9,0,1.5,0s0.6-0.7,1.2-0.7
		c0.7,0,2.5-0.1,2.7,0.3C456.5,607.8,457.1,608.3,456.3,608.7z"></path>
	<path style="fill:#EB0900;" d="M538.6,629.9c-1.1,0.5-0.2,1.2,0.6,1.2s1.4-0.9,1.4-0.9c0.5-0.6,0.6,0.4,0.7,0.7
		c0.1,0.3,1.9,0.5,1.2,0.5c-0.7,0-1.2,0.9-1.2,0.9s-0.4,0.8-0.6,1.2c-0.2,0.4-0.7,1-1.1,1.2c-0.3,0.2-0.2,3.1-0.2,3.1
		s0.1,0.8-0.4,0.8c-0.5,0.1-1.1,0.9-0.2,1.2c0.8,0.3,1.6-0.7,1.6-0.7s0.4,0.1,0.4,0.7c0,0.6,0.9,0.3,1.6,0c0.7-0.3,1.1-0.1,1.6-0.7
		c0.5-0.6,0.5-1.1,0.4-1.3s-1.1-0.2-1.6,0c-0.5,0.2-0.7-0.5-0.6-1.1c0.2-0.7,0.9-0.4,1.7-1c0.8-0.6,0.3-2.7,0.3-3.1
		c0-0.3-0.6-1.2-0.3-1.6c0.4-0.3,0.4-1,0-1.6c-0.4-0.6-1.6-0.9-1.7-1.1c-0.1-0.2-1.2-0.6-1.7-0.4
		C540.1,628.2,539.7,629.4,538.6,629.9z"></path>
	<path style="fill:#EB0900;" d="M539.2,626.6c0.2-0.5,0-0.7,0-1.7c0-1.1-0.7-1.1-0.7-1.1s-0.2-0.4-0.3-1.2c-0.2-0.8-1.1-0.3-1.1-0.9
		c-0.1-0.6-1-2.7-1-2.7c-1.1-1-1.7,0.8-2.1,0.9c-0.4,0.1-0.4,0.8-0.8,1.3c-0.4,0.5-1.4,0.6-1.4,1.4s1.2,0.7,1.5,0.6
		c0.2,0,0.7,0.9,0.8,1.1c0.2,0.2,1.3,1.3,2,1.3s0.7,0.2,0.8,0.8c0.1,0.6,0.4,0.9,1.3,1C539,627.6,539,627.1,539.2,626.6z"></path>
	<path style="fill:#EB0900;" d="M592.2,639.3c0.4-0.3,1.7-2.2,0.3-2.1L592,638c0,0-1.2,0-1.2,0.4
		C590.8,638.8,591.8,639.6,592.2,639.3z"></path>
	<path style="fill:#EB0900;" d="M587.4,636.1c-0.3,0.1-0.7,1.2-0.4,1.9c0.2,0.7,1.2-0.7,1.2-0.7s0.7-0.9,1.2-1.1s0.3-1.3,0.3-1.3
		C588.8,634.2,587.8,636,587.4,636.1z"></path>
	<path style="fill:#EB0900;" d="M587.3,634.2c0-0.3,1-0.1,1.3,0c0.3,0.1,0.6-1.9,0.6-1.9c-0.6-0.6-1.7,0.5-2.3,0.9
		C586.3,633.7,587.3,634.5,587.3,634.2z"></path>
	<path style="fill:#EB0900;" d="M495,555.4c0.2-0.7,0.3-1.1,0-1.8c-0.3-0.7-0.6-1.5-0.7-1.6c0-0.1,0.2-1.3-0.8-1.5
		c-1-0.2-1.4,0.1-2.7,0c-1.2-0.1-2.3-1.2-2.9-0.4c-0.6,0.7,0.2,1.2-0.7,1.7c-0.9,0.4-2.8,0.7-3.4,1.4c-0.6,0.7-1.7,1.5-1.4,2.4
		c0.3,0.9-0.8,0.7-0.8,2.2c0,1.4,0.7,3.8,1.7,3.7c0.9-0.1,2.1-0.8,2.3-0.3c0.2,0.5,0.3,2.7,1.2,2.2c0.9-0.4,1.7-0.6,1.9,0.1
		c0.2,0.6,1.2,1.7,1.7,1.2c0.5-0.5,1.8-1.9,2.2-2.2c0.4-0.3,2.2-1.7,1.9-2.7c-0.2-0.9-1.2-2.6-1-3.2
		C493.5,556.5,494.9,556.1,495,555.4z"></path>
	<path style="fill:#EB0900;" d="M460.5,554.2c0.3,0.8,2.1,1.7,3.4,2.1c1.3,0.3,2-0.3,2.3-0.8c0.3-0.5,1.1-0.5,1.8-0.5
		c0.7,0,1.3-1.6,1.7-2.3c0.4-0.7,1-1.6,1.2-2.8c0.2-1.2-0.7-1.2-1-1.5c-0.2-0.3,0.1-1.3,0-1.9c-0.1-0.6-1.6-0.7-2-0.9
		c-0.4-0.2-0.7-0.9-1.1-1.2c-0.4-0.3-1.2,0-1.6,0.3c-0.4,0.3-1.1-0.5-1.4-0.7c-1.5-1.2-3.7,1.9-3.7,2.4c0,0.5-1.4,1.7-1.7,2.9
		c-0.2,1.2-0.1,2.6,0,2.8C458.6,552.3,460.2,553.3,460.5,554.2z"></path>
	<path style="fill:#EB0900;" d="M511.5,518.3c0.4,0.4-0.2,0.7-0.5,1.5c-0.3,0.7,1.3,1.2,1.7,1.2c0.3,0.1,0.5,0.6,0.7,1.8
		c0.2,1.2,1.4,1.8,2.6,1.8c1.2,0,1.2,0.2,3.1,0.2c1.9,0,2.7-0.2,3.2-0.3c0.4-0.2,2.3,1.1,3.4,0.9c1.1-0.2,0.9-0.7,1.6-0.9
		c0.7-0.2,0.7-1.2,1.3-2.1c0.6-0.9,1.6-1.3,2.1-1.9c0.5-0.6,0.5-1,1.3-1.2c0.8-0.2,1.2,0,1.2,0c1.2,2,3,0.7,3.7,0.2
		c0.7-0.6,0.7-0.2,1.4-0.2c0.7,0,0.2-1.1,0.2-1.4c0-0.3,0.4-0.4,1.2-0.6c0.7-0.2,0-0.5,0.2-1.3c0.2-0.8,0.7-0.1,1-1
		c0.3-0.8-0.3-4.6-0.7-5.4c-0.3-0.8-2.2,0.3-1.7,0c0.4-0.3,0.5-1.9,0-2.6c-0.5-0.7-2.7,0.7-3,0.5c-0.3-0.2-0.7-1-1.6-1.1
		c-0.8-0.1-2.1,0.2-2.2,0.7c-0.2,0.6-1.6,1.2-2.6,1.5c-1,0.2-0.2,4.3-0.2,5.1c0,0.7,0.5,3,0.5,3l-1.4,0.8c0,0-1.1-0.4-2-1.1
		c-0.9-0.7-2.6,0.5-2.6,0.5s-1.2-1-1.2-1.4c-0.1-0.4-0.8-1.2-0.8-1.2s-1.5,0.7-1.7,1.2c-0.2,0.4-1.4,0.5-1.4,0.5s-0.8-0.4-1.7-1.2
		c-0.8-0.7-0.7-1.7-0.8-2c-0.2-0.3-1.8-0.5-2.9-0.4c-1.1,0.1-0.9,2.7-0.9,2.7s-1.5,1.2-1.5,1.7S511.1,517.9,511.5,518.3z"></path>
	<path style="fill:#EB0900;" d="M519.9,552.8c0.9-0.1,1.6-0.2,1.8-0.5c0.3-0.2,0.6-2.4,0.9-2.9c0.2-0.5,0.4-0.7,0.8-1.5
		c0.3-0.8-0.2-0.6-0.7-1.6c-0.6-1-0.9-1.6-0.9-1.6c-1.3,0.1-1.4-0.6-1.7-1.1c-0.2-0.5-2.2-0.5-3.9-0.6c-1.7-0.1-2,0.7-2.6,1.1
		c-0.6,0.4-0.8,1.5-1.8,2.4c-1,0.9,0,1.8,0,2.4c0,0.6,0,1.2,0.8,1.8c0.8,0.6,1,0.6,1.4,1.3c0.4,0.7,2.2,1.2,2.6,1.7
		c0.4,0.4,1.3,0.5,1.7,0C518.6,553.3,519,552.9,519.9,552.8z"></path>
	<path style="fill:#EB0900;" d="M518.5,573.3c0.5,0,0.7,0.7,1,1.6c0.3,0.8,2,0.5,2.3,0.3s1,1,1.4,1s1.1-1.2,1.7-1.4
		c0.6-0.2,1.9-0.6,2.5-1.2c0.6-0.6,1.9-0.2,2.1-1c0.2-0.7,0.3-2.4,0.6-3.8c0.2-1.4-0.2-1.7-0.6-2.4c-0.4-0.7-0.7,0-1.2,0
		c-0.5,0-0.7-0.4-1.4-1.2c-0.7-0.7-3.6-0.5-3.6-0.5c-3-2.2-3.6,1.3-4.4,1.3c-0.8,0-1.1,2.4-0.8,2.9c0.2,0.5-0.5,0.7-0.5,2.4
		C517.4,573.1,518,573.3,518.5,573.3z"></path>
	<path style="fill:#EB0900;" d="M571.3,595.5c0.6,0,0.5-0.7,0.9-0.8c0.4-0.1,1.1-0.1,0.8,0.8c-0.2,0.9,0.7,2.3,1.1,1.3
		c0,0,0.2-1.2,1-1.3c0.8-0.1,1.4-1.3,1.4-1.3s1.2-0.7,0.7-1.6c-0.6-0.9-0.8-1-1-1.3c-0.2-0.2,0-1.1-0.5-1.2c-0.5-0.2-3.1-0.2-3.6,0
		c-0.5,0.2-0.7,0.9-1.2,1.3c-0.5,0.4-1,1.4-0.8,2C570.5,593.9,570.7,595.5,571.3,595.5z"></path>
	<path style="fill:#EB0900;" d="M524.2,470c-0.1,1.2,1.1,1.7,1.5,2c0.4,0.2,1.2,0.8,1.8,1.1c0.7,0.2,0.4,1.2,0.4,1.2
		c-0.4,2.1,2.7,0.7,3.4,0.3c0.7-0.3,2.7,0,3.7-0.3c0.9-0.3,0.2-2,0-3.2c-0.2-1.2,1.2-1.7,1.3-2.7c0.2-1.1-0.7-2.3-0.7-2.3
		s-1.6-0.4-2.1-1.9c-0.5-1.5-2.2-0.3-3.7-0.5c-1.6-0.2-3,1.4-3.4,1.9c-0.4,0.5-1.7,1.5-2.2,1.9C523.8,467.9,524.3,468.9,524.2,470z"></path>
	<path style="fill:#EB0900;" d="M405.7,492.4c0.1,0.8,0.8,2.1,1.2,2.1c0.4,0,1.9,1.5,2.2,0.7c0.2-0.7,0-1.7,0.5-1.9
		c0.5-0.2,2-1.5,2.2-2c0.2-0.6,0-1.9,0-1.9s0.4-2.1,1.6-1.4c1.2,0.7,3-0.1,3-0.1s1.2,1.1,3.3,1c2.2-0.1,2.3-0.6,2.6-0.9
		c0.2-0.3,0.8-2.3,2.3-2.3s2,0.1,2.8,0c0.8-0.1,0.8-1.6,1.8-1.9c1-0.3,1.5-2.2,0.9-2.3c-0.6-0.2-1.3,0.2-1.5,0
		c-0.2-0.2-0.6-1.5-0.6-1.5s0.2-1.7-0.2-2.6c-0.4-0.8-0.7-2.2-0.9-2.2c-0.2-0.1-0.6,0.8-1.2,0.5c-0.7-0.3-0.5-1.4-1-1.4
		c-0.5,0-0.5,1.6-1.7,1.4c-1.2-0.2-1.2-1-2.2-0.6c-1.1,0.4-2.3,1.4-3,1.3c-0.7-0.1-1.4-0.4-1.7-0.4c-0.2,0-0.7-1.7-1.7-1.2
		c-1,0.6-2,2-2,2s1.4,1.6,0.6,2.1c-0.8,0.5-3.3,2.2-3.1,3.3c0.2,1.2,0.7,2,0.5,2.6c-0.2,0.7-0.6,2.1-1.4,2.4
		c-0.3,0.1-1.1,0.6-1.7,0.4c-0.6-0.2-2.3,0-2.3,0s-2.1,2-1.6,2.9C404.1,491.4,405.6,491.6,405.7,492.4z"></path>
	<path style="fill:#EB0900;" d="M400.7,507.1c0.7-0.8,1.1-2.1,1.4-1.4c0.3,0.7,1.7,0.9,1.7,0.6s-0.5-1.6,0.3-2
		c0.8-0.4,1-2.3,0.5-2.4c-0.5,0-0.2-2-1.2-1.6c0,0-0.8-0.9-0.3-1.5c0.4-0.6,0.5-2.3,0.1-2.3c-0.4,0-1.9,0.5-2.3,1.2
		c-0.4,0.7-5.7,4.6-5.4,5.8c0.2,1.2,1.2,2.3,1.4,2.6C397.2,506.4,400.1,508,400.7,507.1z"></path>
	<path style="fill:#EB0900;" d="M428.1,515.7c0,0-4.1,3.3-4,3.9c0.1,0.6-1.1,1,0,2.6c1.1,1.6,1.8,2.1,2.7,2c0.8-0.1,1.7,1,2.9,1.1
		c1.2,0.1,1.2-1.2,1.5-1.6c0.3-0.4,1-1.8,0.6-2.7c-0.4-0.8,1-1.6,0.5-2.3C431.8,518,429.8,514.3,428.1,515.7z"></path>
	<path style="fill:#EB0900;" d="M428,537.9c-0.5,0.7-0.5,2.9,0,3.3c0.5,0.4-2.8,2.7-4.4,4.2c-1.5,1.4,0,1.6,0,2.2
		c0,0.7,0,0.3-0.5,0.4c-0.6,0.1-0.7,2.6,0,2.7c0.7,0.1,0.7,0.8,0.5,1.2c-0.2,0.4,1.8,1.4,1.7,2c-0.1,0.6,1.1,1.3,1.8,1.7
		c0.7,0.3,5.3-5.5,6-5.4c0.7,0.1,2,0.4,2.2,0.5c1.4,0.3,3.9-4.6,4.6-5.7c0.7-1.2-0.3-1.8-0.1-2.5c0.2-0.7,2.9-1.9,3.3-2.6
		c0.4-0.7-0.8-0.9-0.1-2.5c0.7-1.6-2.1-2.9-2.1-2.9s-0.4-1.1-0.9-1.7c-0.5-0.6-1.9-0.1-2.2,0c-0.2,0.2-0.9-0.2-1.9,0s-1,2.5-1.2,2.1
		c-0.2-0.4-1.7,0.6-2.8,0.1S428.5,537.1,428,537.9z"></path>
	<path style="fill:#EB0900;" d="M387.8,541.8c0.2-0.2,1,1.2,1.4,1.2s2.7-2.3,2.7-2.3s-0.1-1,0.7-1.4c0.7-0.4,0.7-1.1,0.7-1.7
		c0-0.7-1.2-0.7-0.9-1.3c0.2-0.7-0.2-1.4-0.9-1.4c-0.7,0-0.5-0.3-1-0.8c-0.5-0.5-1.2,0.7-1.2,1.2c0,0.6-1,0.7-1.8,0.7
		c-0.8,0.1-0.3,0.8-1.1,1.5c-0.7,0.7,0.6,2,0.6,2.5c0,0.5-0.5-0.1-1.2,0c-0.7,0.1,0.1,1.7,0.7,2.3
		C387.2,542.8,387.5,542,387.8,541.8z"></path>
	<path style="fill:#EB0900;" d="M354.2,517.7c0,0-0.6,0.2-0.9,0.8c-0.3,0.6,0.7,2.1,1,1.8c0.3-0.3,1.3,0.8,1.7,0.9
		c0.3,0.1,0.9,0.1,1.3,0.7c0.4,0.7,1.2,0.4,1.8,0.2s0.8-0.9,0.8-0.9s0.7,1.2,0.7,1.6s-0.7,0.9-1.2,1.7s-0.2,2.4,0,3.3
		c0.2,0.9,0.9,1.8,1.1,2.6c0.2,0.7,1,0.1,1.6,0c0.6-0.1,2.2,3.5,2.8,4.1c0.6,0.6-0.3,0.8-0.4,1.4c-0.1,0.5,0.6,1.2,1.3,0.6
		c0.7-0.6,0.5-0.7,1-0.6c0.5,0.2,2.2,3.4,2.2,3.4s-0.4,0.8-0.7,1.1c-0.3,0.2,1,2.9,1.6,3.6c0.6,0.7,0.7,1.8,0.9,2.9
		c0.2,1.1,1.7,1.2,2,1.1c0.3-0.2,1.1,1.9,1.8,2.7c0.7,0.7,0.7,2.5,1.4,2.5c0.7,0,1.1-0.3,1.1-0.3c0.2,0.4,1.2-1.3,1.2-2
		c0-0.7,0.3-0.8,0.8-0.8c0.5,0,1.2-1,1.7-2.2c0.5-1.2-0.9-0.6-1-1.5c-0.1-0.9,1.1-0.2,1.6-1.2c0.5-1,1.3-0.9,1.3-2.1
		c0-1.2-0.5-1-0.3-2.2c0.2-1.2-0.1-2.2,0-3.2c0.1-1.1-0.6-1.3-1.1-1.2c-0.5,0.2-1.3-0.6-1.6-1.7c-0.2-1.1-1.7-1.1-2.1-1.4
		c-0.3-0.3-0.9-0.8-1.6-0.9c-0.7-0.2-1.3-1.3-1.3-1.5s1-1.4,0.9-2.7c0,0,0.3-0.8-0.3-1.2c-0.7-0.5-0.8-1-1.2-1.7
		c-0.4-0.7-0.2-1.4-0.7-2.2c-0.6-0.7-1.2,0.1-1.2,0.1s0-1,0.3-1.6s-0.4-1.7-1.3-2.2c-0.9-0.4-0.7,2.6-0.8,3.1
		c-0.2,0.5-0.7,0.4-1.4-0.1c-0.7-0.5-1.4-0.8-2-1.4c-0.6-0.6-1.2,0.2-1.7,0.2c-0.6,0.1-1.8,1.4-2.3,0.5c-0.5-0.9-1.2-1.4-1.4-1.5
		c-0.2,0,0.7-1.7,0.9-2.1c0.2-0.4,0-1.2-0.6-2.1c-0.6-0.9-1.3-0.5-1.4-0.7c-0.1-0.2-1.2-1.3-2.5-1.2c-1.3,0.1-1.1,0.4-1.5-0.2
		c-0.4-0.7-0.6-0.4-1.1,0c-0.5,0.4-1.4,1.1-2,1.8C352.7,516.5,354.2,517.7,354.2,517.7z"></path>
	<path style="fill:#EB0900;" d="M378.6,527.8c0.1-0.8-0.9-0.8-0.9-0.8s-0.2,0.9-0.7,1.2c-0.4,0.2-0.2,1.7,0,1.9
		C377.8,531,378.5,528.6,378.6,527.8z"></path>
	<path style="fill:#EB0900;" d="M335.4,464.9c-2.3,0.8-0.8,3-0.8,3.7s-2.8,3.2-2.8,4.5c0,1.3,2.8,2.8,4,2.7c1.2-0.2,4.2,0.2,5.2,0
		c1-0.2,2.8,1.3,2.8,1.3c2-0.2,0.3-1.8,0.7-2.8s0-3,0-3.4c0-0.4-1.5-3.6-1.5-3.6s-3.2-0.7-3.7-1.3
		C338.7,465.2,337.7,464,335.4,464.9z"></path>
	<path style="fill:#EB0900;" d="M327.6,444.2c1.2,0,2,2.5,2.8,2.8c0.8,0.3,2.3,0,3.8,0s3.2-0.3,2.7-1c-0.5-0.6-2.5-3-2.5-3
		s-0.7-1.3-1.5-2.7c-0.8-1.3,2.8,0.5,2.8,0c0-0.5-0.3-1.2-1.3-2.1c-1-0.9,0.3-0.8,0-2.8c-0.3-2-5.8,2.2-6.8,2.7
		c-1,0.5-1.3-0.8-1.3-0.8c-2.2-1.8-2.2,2.7-3,3.7c-0.8,1.1,0.3,1.9,0.8,2.8C324.6,444.7,326.4,444.2,327.6,444.2z"></path>
	<path style="fill:#EB0900;" d="M311.4,409.6c0,0,2.2,0.3,2.3-1.2c0.2-1.5-2.3-2-2.3-2s-2.7,0-4.3,0c-1.7,0-5,0-5,1.6
		c0,1.6,0,2.1-0.7,2.9s-1.5,3.8-1.2,5.8c0.3,2,1.5,0.5,2.7,2s2.9,2.3,4,1.5c1.1-0.8,1.8-2.8,2.9-2.5c1.2,0.3,3.5-1.5,3.8-2.5
		c0.3-1-0.5-2.8-1.8-3.5C310.6,411.1,310.1,409.7,311.4,409.6z"></path>
	<path style="fill:#EB0900;" d="M293.9,422.6c1.8-0.5,2.1-2,2.1-2s-0.2-1.3-1.2-2.7c-1-1.3-2-3.8-2.2-4.4c-0.2-0.6-0.4-1.7-1.8-1.7
		s-4.9-0.7-6,0.8c-1.2,1.5-2.7,0.9-2.7,0.9s0.3-1.7-1.5,0c-1.8,1.7-3.3,4.4-3.3,4.4s0.2,1.7,0,2c-0.2,0.3-3.7,2.1-3.4,3.8
		c0.2,1.7,1.9,0.9,1.9,2.4s1.7,7.2,1.7,8c0,0.8,0.8,0.6,2.2,1c1.3,0.4,3.3-1,3.8-1.6c0.5-0.7,1.8-1.8,1.5-2.7
		c-0.3-0.8-1.5-2.5,0.7-1.5c0.5,0.2,3,0.7,3.5,0c0.5-0.7,2.8-3.2,2.5-4c-0.3-0.8-0.1-2.2,0-2.7C291.8,422.1,292.1,423.1,293.9,422.6
		z"></path>
	<path style="fill:#EB0900;" d="M259.3,365.1c0,0.8,3.5,1.7,3.5,3c0,1.3,0.2,1.3,2,1.5c1.8,0.2,2.3,0.3,2.7,0.8
		c0.3,0.5,2.5,1.8,4.3,2.3c1.8,0.5,2.7,0.8,3.5,1.8c0.8,1-0.3,2.7,1.8,2.8c2.2,0.2,4.8,0.3,4.8,0.3s0.3,3,3,3c2.7,0,5.5,1.3,6.8,2.3
		c1.3,1-0.7-0.3-0.3,2.5c0.3,2.8,0.2,3.8,1.2,4.3s1.7,0.7,2,2.2c0.3,1.5,1.2,2.5,2.5,3c1.3,0.5,1.7,1,3.1,1c1.4,0,4.6,0.2,5.4-1
		c0.8-1.2,3.7-3.2,2.6-4c-1.1-0.8-1.1-2.8-2.1-3.2c0,0,0.3-2.7,0.9-1.3c0.6,1.3,2.1,1.7,2.7,1.3c0.7-0.3,6.2,0.1,6.2-0.8s0.8-2,0-2
		c-0.8,0-2,0-2.1-0.7s0.7-1.8,0-2.8c-0.7-1-2.6-3.3-2.6-3.3s0.1-1,0-1.8c-0.1-0.8-0.8-2-1.3-2.3c-0.5-0.3-1.7,0-1.7,0
		s-0.6-2.3-1.2-2.3s-0.4,0.5-1.6,1.5c-1.2,1-2.3,1.5-2.3,0.8c0-0.7,0.2-3-1-2.3c-1.2,0.7-1.9,2.2-1.9,2.2s-0.8,1-1.8,1.8
		c-1,0.8-1.5,1.3-1.7,2.5c-0.2,1.2,0.3,1,0,2.5c-0.3,1.5,0.6,2.2-0.8,2.2c-1.4,0-3.4-1-3.4-1s-2.3-2.5-3-2.1
		c-0.7,0.4-2.7-0.9-2.7-0.9s-2.7-2.2-2-3.2c0.7-1,1.2-2.2,1.2-2.7c0-0.5,1-2.2,1.3-3.8c0.3-1.7-0.5-2.8-0.5-2.8l-2.8,1.2l-2.3-2.2
		c0,0,0.8-1.7-0.8-1.7c-1.7,0-2.3,1-3.3,1s-2.5-1-2.5-1h-2.5c0,0,1.3,1.2,0,2.3c-1.3,1.2-1.7,0.2-1.7-0.3s0.5-3,0-3.2
		c-0.5-0.2-2.2,0-2.2,0s-1,0-1.8-0.1c-0.8-0.1-0.8-0.9-1.8-1.1c-1-0.2-3.5-1.8-4.8-1.8c-1.3,0-3.2,1.2-2,2.3
		C259.5,363.1,259.3,364.3,259.3,365.1z"></path>
	<path style="fill:#EB0900;" d="M263.2,419.4c-2.3-0.7-2.7,0-2.5,1.2c0.2,1.2,2,0.7,2.7,0.5c0.7-0.2,2.5,2.7,3.8,2.6
		c1.3,0,1.7-1.8,1.7-3.1c0-1.3-0.7-2.2-0.7-2.2C267.5,416.2,265.5,420.1,263.2,419.4z"></path>
	<path style="fill:#EB0900;" d="M259.2,409.3c1.5,0.2,2.7,2.3,2.7,2.3c0,1.9,1.8,2.5,4.3,3s3.8,2.5,4.8,3.2c1,0.7,2.9,0,2.9,0
		c2.9,0-4.7-3.7-5.1-4.2c-0.3-0.6-4-2.4-2.8-2.9c1.2-0.5,0.2-1.3-0.9-1.8c-1.1-0.5-1.6,2.3-1.6,1.7s-4.7-4.3-5.5-4.7
		c-0.9-0.3-1.3,0.7-1.6,2.3C256,409.8,257.7,409.1,259.2,409.3z"></path>
	<path style="fill:#EB0900;" d="M220.7,403.6c0.7,0.7,2.7,0.8,2.8,0c0.2-0.8,2.7,0.8,2.7-1.5c0,0-1.4-0.5-1.2-1.2
		c0.2-0.7,1.2-1.2,1.2-1.2s0.4-2.3,0-2.7c-0.4-0.3-1.4-2.7-2.6-1.8c-1.2,0.8-4.2-1-3.7,0.8c0.5,1.8-0.1,3.2-0.1,3.2
		s-2.6,1.5-1.4,2.8C219.7,403.4,220,402.9,220.7,403.6z"></path>
	<path style="fill:#EB0900;" d="M231.4,409.1c0.5,0.3,2.4,0,2.4,0s-0.6-0.5-0.1-1.5c0.5-1-2.3-3.4-2.3-3.4c-1.5-1.6-1.3,1.9-1.5,2.5
		C229.7,407.3,230.9,408.8,231.4,409.1z"></path>
	<path style="fill:#EB0900;" d="M166.8,265.4c0,0-0.5-3.8,2.2-3.5c2.7,0.3,5.3-2.3,4.5-2.8c-0.8-0.5-5.7-3-6.7-2.5
		c-1,0.5-2.1,2-1.6,2.7c0.5,0.7-0.1,1.7-0.1,1.7s-1.7,1.4-1.2,2.4C164.3,264.4,166.6,267.5,166.8,265.4z"></path>
	<path style="fill:#EB0900;" d="M180.9,317.9c0.1,0.2,1.5-0.8,2.2-1.5c0.7-0.7-1.5-2-2.3-2.3c-0.8-0.3-2.2,1.3-2.2,1.3
		C178.1,317.7,180.7,317.7,180.9,317.9z"></path>
	<path style="fill:#EB0900;" d="M171.8,317.9c-0.7,1-2.9,0.4-3.1,0c-0.2-0.4-1.9-1-1.5,0c0.3,1,0.7,2.6,0.7,2.6s1.2,3.8,2.3,2.7
		c1.2-1.2,3.2-0.4,2.7,0.2c-0.5,0.6-0.2,2.1,0.8,1.6c1-0.5,0.8-0.8,2,0.1s6.4,2.9,2.9-1.9c-0.3-0.4-1.1-4-2.3-5.3
		c-1.2-1.4-2-2.4-2.7-1.9C172.9,316.4,172.4,316.9,171.8,317.9z"></path>
	<path style="fill:#EB0900;" d="M154.6,311c0.5,1.5,0.8,1.7,2.8,3c2,1.2,2.8,2.5,3.7,3c0.8,0.5,2.3,0.7,2.6,0c0.3-0.7,3.3-1,1.9-2
		c0,0,0-1.3,0-2.2c0-0.8,1.3-1.7,0-2.2c-1.3-0.5-1.7,0.3-2.7,0c-1-0.3-3.3-5.3-4.2-5.3c-0.8,0-3.5,0-3.5,0s-1.2-1.5-2.2-1.2
		c-1,0.3-0.7,2.5,0,3.3C153.8,308.4,154.1,309.5,154.6,311z"></path>
	<path style="fill:#EB0900;" d="M194.2,363.9c0.7,0.7,0.9,0.4,2,1.4c1.1,1,5.4,4.2,4.1,1.3c0,0-0.3-2.7-1.3-2.8
		c-1-0.2-1.7-1.2-2.3-1.2c-0.7,0-1.8,1-2.2,0c-0.3-1-2.8-2.2-2.3-1C192.7,362.8,193.6,363.2,194.2,363.9z"></path>
	<path style="fill:#EB0900;" d="M265.4,343.2c-0.2,0.5,0.1,2.5,1.1,3c1,0.5,2.2-1,2.3-2.2c0.2-1.2,2.8-1.7,2.8-1.7
		c2.3,0.2,0-3.5,0-3.5s-0.5-1.2-1.7-2.5c-1.2-1.3-3,3.3-4.6,3.7C263.8,340.3,265.6,342.7,265.4,343.2z"></path>
	<path style="fill:#EB0900;" d="M90.5,231c0.3-0.7,1.5,0.3,2-0.3c0.5-0.7,0.3-2.2,0.3-3.2c0-1-0.3-1.3,0-1.8
		c0.3-0.5,1.8-2.7,2.3-4.7c0.5-2.1,0.2-1.4,0-2.3c-0.2-0.8-0.2-2,0-3c0.2-1-1-2-2.3-3c-1.3-1-0.7,1.5-1.5,2.3c-0.8,0.8,0.7,3,0.7,3
		s-0.3,1.8,0.5,2.9c0.8,1.1,0,1.4,0,2.2c0,0.8-1,1.3-2.1,1.3c-1.1,0-1.9-0.2-3.4,0.3c-1.5,0.5-0.7-0.3-1.2-1.5
		c-0.5-1.2,2.8-2.5,4.2-4c1.3-1.5-0.7-3-1.5-3.7c-0.8-0.7-1-1.3-2.5-1s-1,0.8-2.7-0.3c-1.7-1.2,0.7-1.5,0-2.3
		c-0.7-0.8-3.8,0.2-4.8,0.2c-1,0-1.7-0.7-2.2-2.2c-0.5-1.5-5,5.2-6.7,6.2c-1.8,1-0.4,2.8,0,4.2c0.4,1.3-1.2,1.5-2,1.2
		c-0.8-0.3-3,2-3.5,2.7c-0.5,0.7,1.2,2.8,2.5,2.5c1.3-0.3,2.2-1.3,2.2-1.3s2.1,3,2.9,4.5s1,3.2,2.5,1.7s1-1.7,1-1.7
		c2.2-2.2,2,1.8,2.7,3.3c0.7,1.5,2,1.2,2.7,1.2c0.7,0,1-1.2,1.2-2.5c0.2-1.3,0-2.3,0.5-2.5c0.5-0.2,0.8,2.2,1.3,2.7s1.5,1.2,2.3,2.2
		C86.7,235.1,90.2,231.6,90.5,231z"></path>
	<path style="fill:#EB0900;" d="M102.2,187.8c-0.2-1.7-3.5-2.5-4.4-3.4c-0.9-0.9-0.4-1.3-0.1-3c0.3-1.7-0.3-1.1-2.2-1.4
		c-1.9-0.3-3,1.2-4.3,1.3c-1.2,0.1-1.3,0.5-1.7,1.6c-0.4,1.1,0.6,3.5,0.6,3.5s-2.7,3.5-2.9,3.8c-0.2,0.3-2.5-0.6-5.1-0.6s-3,3-4,3.8
		c-1.1,0.8-0.4-1.1,0.1-2.4c0.5-1.3,4.2-4,5.4-3.8c1.2,0.2-0.5-1.7-1.9-1.6c-1.4,0-5.3,4.6-5.3,4.6c-2.2,4.3,0.2,5.5,1.7,5.5
		s2,2.2,2.7,3.5c0.7,1.3,2.7,0.7,3.5,1.2s3.3-0.7,4.7-2c1.3-1.3,0-1.3,0.9-2.5c0.9-1.2,1.3-0.2,2.1,0.5c0.8,0.7-0.7,1.7-0.7,2.3
		c0,0.7,1.8,2,3.2,2c1.3,0,3,1,4,0.7c1-0.3,2-1,3.9-1.7c1.9-0.7,0.6-5.4,0-7.3C101.6,190.4,102.3,189.5,102.2,187.8z"></path>
	<path style="fill:#EB0900;" d="M64.9,252.1c0,0-0.5,1.7-0.9,3.5c-0.4,1.8,1.9,0,1.9,0c2.3,2.5,2.2-3.3,2.9-4.3c0.7-1,1.2-3,1.2-3
		s-0.4-3,0-4c0.4-1-1.8-1.2-3.1-2c-1.3-0.8-1.2,3.8-2.2,4c-1,0.2-0.2-2.3-1.5-2.8c-1.3-0.5,1.2,4.7,1.5,5.8
		C65.1,250.4,64.9,252.1,64.9,252.1z"></path>
	<path style="fill:#EB0900;" d="M207.9,487.2c1.2-1,0.8-1.7,1.8-2.2c1-0.5-1-1.7-1.3-2.3c-0.3-0.7-1.7-0.8-2.5-1.2
		c-2.5-1.2-0.2,4.2,0,5C206.1,487.3,206.7,488.2,207.9,487.2z"></path>
	<path style="fill:#EB0900;" d="M139.3,441.6c0,0,1.4,1.5,2.9,0.6c1.5-0.8-0.8-2-1.5-3.6c-0.7-1.6-1.7-0.2-1.8-0.5
		c-0.2-0.2-0.8-1.9-2.3-2.4c-1.5-0.5,0.5,2.5,0,3.5s0,2.3,0,2.3C137.6,443.1,139.3,441.6,139.3,441.6z"></path>
	<path style="fill:#EB0900;" d="M96.2,438.2c-1.2-0.6-3-1.9-3.8-2.5c-0.8-0.6-3.7-4.4-3.3-2.8c0.3,1.7,2.8,4.7,3.2,5.3
		c0.3,0.6,2.3,1.2,2.8,2.2c0.5,1,4.8,4.3,3.7,1.8C98.7,442.2,97.3,438.8,96.2,438.2z"></path>
	<path style="fill:#EB0900;" d="M75.4,425.4c-1.2-0.2-1.2,1.5-2.3,2c-1.2,0.5-1.5-2.5-1.5-3.5s-2.8-3-2.8-3.5c0-0.5,0.7-1.8,0.7-3.2
		c0-1.3-1.2-1.5-1.8-2.3c-0.7-0.8-0.8-2.7-1.5-2.8c-0.7-0.2,0.3,5.9,0.3,5.9s-1.5,0.9-2.5,0.2c-1-0.7-1.3,0.3-1.5,1
		c-0.2,0.7-0.6,2.3,0,3c0.6,0.7,0.9,2,0.9,2s-0.5,0.8-0.8,3.1c-0.3,2.3,3,3.9,4.3,5.1c1.3,1.2,1.5,2.9,1.7,3.2
		c0.2,0.3,2,2.6,3.5,3.4c1.5,0.8,3.5,1.2,3.5,1.2c2.2,0.6,0.2-3.2-1.3-4.6s-0.5-3.2-0.5-3.2s1.7,0.9,3,2c1.3,1.1,1.8-0.7,2-2
		c0.2-1.2-1.3-3.1-1.2-4.4C77.5,426.7,76.5,425.6,75.4,425.4z"></path>
	<path style="fill:#EB0900;" d="M27.8,411.3c0.3-0.7,0.3-4.3-0.3-4c-0.7,0.3-1.6,0.5-2.2,1.2c-0.6,0.7-2.1-3-3.6-1.2
		c0,0,0.5,0.7,0,1.8c-0.5,1.2,1.3,3,2,3c0.7,0,2.8,0.7,3.3,2c0.5,1.3,0.8,4.7,1.3,3.5c0.5-1.2,1.2-2.7,0-3.8
		C27.1,412.6,27.4,411.9,27.8,411.3z"></path>
	<path style="fill:#EB0900;" d="M51.2,373.2c0-1.2-2.2,0.4-3,0.1c-0.9-0.3-1,0.5-1.3,1.3c-0.3,0.8,1.2,1.5,1.8,2s0.8,1.5,0.8,1.5
		c0.8,1.5,1.8-1.5,1.7-2.7C51.1,374.3,51.2,374.5,51.2,373.2z"></path>
	<path style="fill:#EB0900;" d="M41.1,420.4v-1.7c1.5-2.2-2.3-0.3-3.2,0.7c-0.8,1,0.8,1.6,0.8,1.6s-0.2,0.9,0,1.9
		c0.2,1,0.8-0.5,2.3-1.2C42.6,421.1,41.1,420.4,41.1,420.4z"></path>
	<path style="fill:#EB0900;" d="M58.6,354.3c-1,0-2.1,0-2.1,0s0.9-1,0-1c-0.9,0-4.4,4-4.4,4.6c0,0.6,2-0.1,2-0.1s-0.2,0.2,1,0
		c1.2-0.2,2.3-1,2.3-1S59.6,354.3,58.6,354.3z"></path>
	<path style="fill:#EB0900;" d="M279.6,653.1c-1.2-0.5-1.5,0.8-1.5,0.8l-2.2-1.8c0,0-1-3.8-1.5-6.3c-0.5-2.5,0-2.5,0-2.5
		s0.8-2.2,0-3.2c-0.8-1-2.2,1.2-2.2,1.2s-0.2,1.7,0,2.2c0.2,0.5,0,2,0,2s0,1.7-1.1,1.7c-1,0-3.5,1.8-5,1.3c-1.5-0.6-3.3,2.6-3.3,2.6
		s-0.8,1.2-0.3,1.7c0.5,0.5,1.2,0.8,1.2,1c0,0.2-1,0.6-1.8,1c-0.8,0.3,0,3.9,0,3.9l5.7,0c0,0,0.2-1.4,0.8-2.2c0.7-0.8,0,0,1.1,0
		c1.1,0,0.4-1.5,0-2.6c-0.4-1.1-0.9,0.1-1.4,0c-0.5-0.1-1.5-0.7-2.8-1.5c-1.3-0.8,1.3-1,2-1.2c0.7-0.2,1.5,0.8,2.2,0
		c0.7-0.8,0.9-2.5,0.9-2.5s1.8-0.2,1.8,0c0,0.2,0.8,2.5,1,3.2c0.2,0.7,0.6,1.7,1.2,2.5c0.5,0.8-0.4,1.2,0,1.8
		c0.4,0.7,1.3,1.7,1.8,2.6c0.5,0.9,1.5,0,3.2,0c1.7,0,0.9-3.6,1.3-4.9C281.1,652.3,280.8,653.6,279.6,653.1z"></path>
	<path style="fill:#EB0900;" d="M254.3,643.3c-0.5-0.7-1.7,1.8-1.7,1.8s-1,0.2-2.3-0.3c-1.3-0.5-1.5-1-1.8-1.8c-0.3-0.8-2-0.7-2-3.1
		s2.7,0.3,3.2,0c0.5-0.3,1.2-0.7,2.2-1.4c0.7-0.5,0.4-0.8,0.1-0.9l1.7,0.8c0,0,1.5-0.7,2.1-1.3c0.6-0.7-1.6-0.8-1.6-0.8
		c0.2-1.3,0.3-5.2-0.5-5.9c-0.8-0.7-1.5,1.5-2,1.3c-0.5-0.2-0.3-1.5-1-1.7c-0.7-0.2-0.8-0.5,0.3-1.5c1.2-1,0.3-2,0.5-2.7
		c0.2-0.7,0.7-0.5,1.5-1c0.8-0.5,1,0,1.7-0.5c0.7-0.5,2-1.5,0-1.5c-2,0-2.5-0.2-2.2-1.7s0.5-1.2,0-1.8c-0.5-0.7-1.3,0-1.5-0.5
		c-0.2-0.5-0.3-2.5-1.8-2.3c-1.5,0.2-0.8,3.2-1.3,3.8c-0.5,0.7-1.7,1.5-2.8,2c-1.1,0.5-2.4-0.5-2.4-0.5s-1-0.2-2.3-0.3
		c-1.3-0.2-0.7,2-0.7,2s-0.8,0.8-1.8,2.2c-1,1.3-2.2,0.5-1.5-0.2c0.7-0.7,0.2-1,0.2-1.7c0-0.7,1.1-0.6,1.5-2.5c0.3-1.6-0.4,0-1-0.3
		c-0.9-0.5-2.2,0.7-2.2,0.7s-0.7,2.5-1.5,1.8c-0.8-0.7-1.8-0.2-1.8-0.2l1.3,1.7c0,0-0.7,0.5-2.3,0.5c-1.7,0-1.8,0.2-2.8,0.5
		c-1,0.3-1-0.2-1.4-1c-0.4-0.8-1.9-0.3-2.1-1c-0.2-0.7,1.5-1,2.1-1.7c0.6-0.7,1.1-2.7,0-3.7c-1.1-1-0.7-1.7-0.7-2.8s1.2-1.7,1.7-1.2
		s-0.3,2.5,0.2,2.8c0.5,0.3,1-1.2,1.3-1.8c0.3-0.7,1.3-0.2,2.5-0.8c0.9-0.5,2.4,0.1,2.9,0.4c0.1,0.1,0.1,0.1,0.2,0.1
		c1,0,0.7,2.2,0.7,2.2s0.7,1.7,1.8,1.5c1.2-0.2,1.7-1.5,1.7-1.5l-1.5-2v-1.6c0,0,0.3-1.6,1.5-0.9c1.2,0.7,2.7,0.4,2.7,0.4
		s2.2,0.6,2.8-0.5c0.7-1.2,2.8-3.2,2.8-3.7c0-0.5-2.8-0.3-2.8,0c0,0.3-2.1,0.3-2.1,0.3s-1.6-1-3.4,0s-4,1.9-4,1.9s-0.8,2.7-0.5,3.6
		c-0.4-0.3-0.9-0.8-1.3-1c-0.7-0.4-1.3-2.5-1.7-3.5c-0.3-1.1-1.7-0.3-2.2-0.8c-0.5-0.5-1-1.2-1.8-2c-0.8-0.8-1.8-0.8-3-1.5
		c-1.2-0.7-1.5-0.2-2.8-0.9c-1.3-0.7-1.2-0.8-1.6-1.5c-0.5-0.7-2.2-3.5-3.2-4.3c-1-0.8-2.5-2.8-3-3.5c-0.5-0.7-0.7-3.5-0.7-3.5
		s0.3-1.7,0.8-1.5c0.5,0.2,1.7,2,2,1.5c0.3-0.5-1-3.7-1-4.2c0-0.5,0.8-1.5,1.5-2c0.7-0.5-0.8-1.5-0.5-2.2c0.3-0.7,0.2-1.4-0.3-1.6
		c-0.5-0.2-0.8-1-1-2c-0.2-1-2.3,0.3-2.8,0.2c-0.5-0.2,0-1.5-0.3-5c-0.3-3.5,1.8-2.2,3.7-2.2c1.8,0,0.7-1,0.7-2.3
		c0-1.3,0.7-1,1.3-2.3c0.7-1.3,0-2-2-4.5c-2-2.5-3.2-0.7-3.5-1.4c-0.3-0.8-0.7-2.1-1.2-3.1c-0.6-1-1.4-2.2-2.6-2.2s0.2,1.8,0,2.3
		c-0.2,0.5-4,0.7-5.8,0.7c-1.8,0-2,1.5-3.4,2.2c-1.4,0.7-1.5,0.9-2.5,0.9c-1,0-1.7,0.7-3.3,0.2c-1.7-0.5,0,0-0.2-1.1
		c-0.2-1.1,1.5-0.9,2.8-1.6c1.3-0.7,2.2-0.3,1.5-3c-0.7-2.7,0.5-4.1,0.5-5c0-0.8-1.2-0.7-3-2.2c-1.8-1.5-4.3-0.2-6.7-0.1
		c-2.3,0.1-2.2,3.2-3,4.7c-0.8,1.5,0.8,2.7,0.8,4c0,1.3,0,2.7-1.7,3.1c-1.7,0.4-1.3-1.2-2.2-1.9c-0.8-0.7-2,1.2-2.8,0.8
		c-0.8-0.3-0.8-2.7-1-3.5c-0.2-0.9-3.3,0.9-3.3,0.9s-3.8-1.7-5-2.8c-1.2-1.2-1.2-1.8-0.8-3.8c0.3-2,0-1,1.8-2.9
		c1.8-1.8,0.3-2.5-1.8-2c-2.2,0.5-1.3,5.8-2.5,6.5c-1.2,0.7-2.3,2.7-3.3,0.9c-1-1.8-1-1.5-1.2-2.7c-0.2-1.1-3.2-2.9-3.7-3.2
		c-0.5-0.3-0.2-1-0.2-2.5c0-1.5-2-1-2.7-1.5c-0.7-0.5-0.8,1.3-1.2,2.5c-0.3,1.2,0.7,2.1,1.7,2.3s0,3.8,0,5c0,1.2,2.8,1.6,3,2.5
		c0.2,0.8,0.2,1.2,1.5,2c1.3,0.8,2.5,3.7,3.3,3.4c0.8-0.3,1.8-3.2,3-3.4c1.2-0.2,2.5,1,2.5,1.2c0,0.2,1,2.3,0.3,3.2
		c-0.7,0.8,0,2.8,0,2.8s1.3,0.3,1.5,1.2c0.2,0.9,1.5,1.8,4.3,2.1c2.8,0.3,1.8-1.2,2.3-1.8c0.5-0.7,4.7-0.2,5.8,0.8
		c1.2,1,0.5,1.5,0.8,1.9c0.3,0.4,1.5,1.4,3,1.2s-0.2-1.2,0-1.2c0.2-0.1,0.7,0.7,1.8,0.2c1.2-0.5,4.7,0,5.3,0c0.7,0,2.3,2.8,3.2,2.6
		c0.8-0.2,1.7-0.8,2.3,0c0.7,0.8,2.2,2.9,3.2,2.9c1,0-0.2-1.7,0-2.5c0.2-0.8,0.8-0.2,2,0c1.2,0.2,2.6,6,2.6,6s0.7,1.5,0.7,2
		c0,0.5-1.7-0.8-1.7-0.8s-0.3,1.7,0,2.8c0.3,1.1,0,2.2,0.8,3.1c0.8,0.8,0.5,1.5,0.2,2.3c-0.3,0.8-0.1,1.5-0.1,1.5s0,2.2,0.1,2.7
		s0.5,2,0,2.3c-0.5,0.3,0.7,4.7,1,5.5c0.3,0.8,2.2,0,2.7,0c0.5,0,0.7,0.5,1.8,1.5c1.2,1,1.2,0.8,1.2,0.8s1.5,1.7,2,2.2
		c0.6,0.5-0.6,2.2,1.3,4.4c1.3,1.6,2.9,1.4,3.7,1.1c-0.7,0.8-2.2,3.4-2.2,3.4s-1.3,1-2.5,2.5c-1.2,1.5,1.7,3.2,1.7,3.2
		c-0.7,3.2,0.8,3.5,0.8,3.5s1.8-0.2,1.8,1.5c0,1.7,1.2,3,1.5,3.5c0.3,0.5,0.5,3,1,3.2c0.5,0.2,0.9-1.8,0.9-1.8s0.9,0,2.2,0
		c1.2,0,0.6,3.2,0.9,4.5c0.3,1.3-0.2,1.8-0.2,1.8s-1.8-0.2-2.7,0c-0.8,0.2,0.8,1.7,0.8,1.7s-0.7,1.2-0.8,2.5c-0.2,1.3,1,1.3,1.9,1.3
		c0.9,0,0.1,1.7,0,2.3c-0.1,0.7-0.7,3-0.7,3.7s1.2,0.5,1.5-0.8s1-1.8,1-1.8s0.8,0.8,1.6,1.2c0.8,0.3,3.5-1.2,3.5-1.2s0.8,0,1.5-1
		c0.7-1,1-1.2,1.5-1.2c0.5,0,1.2,1.3,1.2,1.3s1.3,0.5,1.2,1c-0.2,0.5,0.7,1.2-1.2,0.9c-1.8-0.3-2.3,0.6-3,0.9
		c-0.7,0.3-1.3-0.2-2.7-0.8c-1.3-0.7-0.8,1.8-1.3,2.6c-0.5,0.8-0.3,2.2-0.3,3.7c0.1,1.5-1.1,2.5,0.1,2.8c1.2,0.4-0.5,1.6,0,2.5
		c0.5,0.9,1.3,0,2.5-1.1c1.2-1.1,0.8-2.9,0.8-3.4c0-0.5,0.8-0.2,1.7,0.3c0.8,0.5,1.3,0.8,2.2,0.5c0.8-0.3,0-1.7,0-1.7s2,0.3,2,1
		s0.8,1.8,0.8,1.8s0.8,0.7,1.5,1.4c0.7,0.7,1,1.1,1,1.1l10,0c0,0-2.7-1.9-3.3-2.4c-0.7-0.5-1.5,1.3-2.7,1.2
		c-1.2-0.1-1.6-3.2-1.6-3.2s0.3-1.3,0-3c-0.3-1.7-1-1.7-1.2-2.5c-0.2-0.8,1.2,0.3,2,0.8c0.8,0.4,1.3,1.9,2,1.9c0.7,0,2,0,3.5,0
		s1.3-0.5,2.3-1.9s1.2-1.8,1.3-3.6S254.8,644,254.3,643.3z"></path>
	<path style="fill:#EB0900;" d="M259.3,622.2c0,0-1.2-0.7-2-0.3c-0.8,0.3,1.7,3.8,1.7,3.8s1.3-0.5,2.5,2.8c1.2,3.3,0.8,1.3,1.3,0
		c0.5-1.3-2.5-3.3-2.7-4c-0.2-0.7,0.2-1.2,1.5-2.2c1.3-1,1.2-1.3,1.2-1.3C264,619.7,259.3,622.2,259.3,622.2z"></path>
	<path style="fill:#EB0900;" d="M226.3,574.6c0.6,0,2.1-0.3,3.7,1.5c1.7,1.8,2,2.2,3.9,4.4c1.9,2.2,4.1,2.7,4.6,2.9
		c0.5,0.2,5.3,4.7,5.5,6s0.5,4,1.8,3.3c1.3-0.7,5.6,2.2,4.5,0c0,0-2-4.3-3.5-5.5c-1.5-1.2-2.8-3.3-3.3-3.1c-0.5,0.2-5.3-1.6-5.8-2.8
		c-0.5-1.2-1.7-4-2.7-4.7s-4-5.8-5.7-5.8s-2.7-2.7-3.1-2.7c-0.4,0-0.9,1.5-1.4,1.8c-0.5,0.3-2.5-0.3-1.5,1.3
		C224.4,573.1,225.7,574.6,226.3,574.6z"></path>
	<path style="fill:#EB0900;" d="M204.8,546.3c1.8-0.5,6.1-4.3,2.6-4c0,0-2.1,0.3-2.6,1.7C204.2,545.4,203,546.8,204.8,546.3z"></path>
	<path style="fill:#EB0900;" d="M199.2,535.9c-1.4-0.3,1.2,5.3,1.2,5.3s0.5,0.8,0.7,1.8s0.3,2.2,1,3.3c0.6,1.1,2.2-1.2,1.8-2.9
		c-0.4-1.7,0.6-1.5,0.9-2.2c0.4-0.7-1.7-2-2.9-3.8C200.7,535.6,199.2,535.9,199.2,535.9z"></path>
	<path style="fill:#EB0900;" d="M152.3,546.4c1-0.1-1.2-1.6-0.7-2.1c0.5-0.5,3.3,1,4.2,0c0.8-1-0.8-1.9-1-2.1
		c-0.2-0.2-1.3-0.8-2-1.8c-0.7-1,0.3-1.5,0-2.2c-0.3-0.7-1.3,0-2.2-0.3c-0.8-0.3,0,0-0.7-0.7c-0.7-0.7-1.3,4-1.3,4s0,1.1-1.3,1
		c-1.3-0.2-3,2.9-3,2.9s-0.8,1.7,0,1.6c0.8-0.2,3-1.6,3-1.6s0.7-0.6,1.5,0c0.8,0.6-1.3,1.2-1.5,1.5c-0.2,0.2,1.5-0.1,2.3-0.3
		C150.5,546.1,151.3,546.4,152.3,546.4z"></path>
	<path style="fill:#EB0900;" d="M144,551.3c-1.7-0.8-1.5,3.9-1.5,3.9s-3.7-2.7-4.5-2.7c-0.8,0-1.2,1.4,0,2.7c1.2,1.3,0,3.3,0,3.3
		s-1.3,0.6-0.8,1.3c0.6,0.7,0.6,0.7,0.6,0.7s0.7,4.2,1.2,4.7c0.5,0.5-1.2,2.8-0.7,3.2c0.5,0.3,1.7,1.8,2,0c0,0,2.7-1.7,2.8-2.5
		s-1.8-2.7-1.4-2.8c0.4-0.1,1.9-1.6,1.4-2.6s1.1-2.7,0.8-4C143.6,555.1,145.6,552.1,144,551.3z"></path>
	<path style="fill:#EB0900;" d="M199.4,641.5c-1.1-0.4,1.6,2.9,2.4,4c0.8,1.1,0.7,2,2,1.5c1.3-0.5,0-4.5,0-4.5
		c0.3-1.5,1.7-0.1,3-0.5c1.2-0.4-0.5-3.3-0.5-3.3c1-0.3,0.9-2.5,0.9-2.5s2,1.4,3.2,1c1.2-0.4-0.6-2.2-1.7-2.2c-1.1,0,0.1-0.9,0-1.7
		c-0.1-0.9-2.8,0.9-3.1-0.4c-0.4-1.2-1.7-3.2-2.2-2.6s1.6,3.8,0.5,4c-1.1,0.1-0.2,2.2-0.7,3c-0.5,0.7-1-1.1-1.4-1
		c-0.4,0.1-0.5,2,0,2.4c0.5,0.4,0,1.5,0,2.8C201.8,642.8,200.6,641.9,199.4,641.5z"></path>
	<path style="fill:#EB0900;" d="M161.9,627.5c-0.4,0.1-1.2-0.9-1.4-1.2c-0.1-0.4-1.7,0-2.4,0c-0.6,0-3-1.4-3.5-1.6
		c-0.5-0.2-1.2-1.4-2.1-2.9c-0.9-1.5-2.6-1-3.5-1.6c-1.6-1,1.9,4.7,1.9,4.7l1,2.9c0,0-0.2,1.8,0.1,1.8c0.4,0,1.2,0.5,1.7,0.9
		c0.5,0.4-0.1,1.7,0,3.2c0.1,1.5,1.9-1.5,2.7-1.7c0.8-0.2,0.5-0.1,1.9,0c1.4,0.1,1.5,1.1,2.6,1c1.1-0.1,1.6-2.1,1.9-2.7
		c0.2-0.6,0.6-1.7,1-2.6C164.2,626.6,162.2,627.4,161.9,627.5z"></path>
	<path style="fill:#EB0900;" d="M119.2,561.5c-0.8-0.7,0.3-3.2-0.1-4.5s0.2-2.1,0-3.4c-0.2-1.3-1.3-0.5-1.9,0
		c-0.6,0.5-0.2,4.6-0.1,4.9c0.1,0.2,0.1,1.1,0,1.6c-0.1,0.5-1.8,0-2.6,0c-2.6,0-0.6,1.1-0.6,1.1l-5.1,0.3c0,0-0.2,0.7,0,1.1
		c0.2,0.4,5.4,1.1,5.4,1.6c0,0.5-0.9,0.9-0.6,1.9c0.3,1,2.7,1.1,3.6,1.7c0.9,0.6,2.6-2,2.6-2s1-0.7,1.6-1.6
		C122.2,563.4,120,562.2,119.2,561.5z"></path>
	<path style="fill:#EB0900;" d="M267.6,642.8c2.1-1.5,0.2-2.4,0-2.9c-0.2-0.5-1.2-0.9-2.3-0.5s1,1.6,1,1.6v1.1
		C266.4,642.1,265.5,644.3,267.6,642.8z"></path>
	<path style="fill:#EB0900;" d="M263,640.4c-0.5-0.6-0.7-2.2,0.1-2.4c0.8-0.1,2-1.3,1.2-1.8c-0.9-0.5-1.2-1.2-1.2-1.2
		s-2.6-2.1-2.9-1.5c-0.3,0.6,0.1,0.9,1.5,2.7c0,0-1.1,2.6-0.9,3c0.2,0.4,0.4,1.2,0.4,1.5c0-0.2-0.2-0.9-1.1-0.8
		c-1,0.1-3.8-2.1-4.3,0c-0.4,2.1,0.9,1.8,1.3,2.4c0.5,0.6,0.2,0.3,0.7,1c0.5,0.7-0.1,3.1,0.8,2.3c0.9-0.7,2.1-2.3,2.1-2.3
		S263.5,641,263,640.4z"></path>
	<path style="fill:#EB0900;" d="M187.3,643.3c0,0,1,1,3.9,1c2.9,0,1.2-1.1,0-1.7c-1.2-0.6-2.4,0-2.4,0l-3-2.9
		C182.6,639.3,187.3,643.3,187.3,643.3z"></path>
	<path style="fill:#EB0900;" d="M213.8,657.4c0,0-1.2,0.6-2,0c-0.7-0.6-4.4-2.2-5.1-2.6c-0.7-0.4-0.9,0.6-0.9,1.1
		c0,0.5,4.9,2.6,5,2.6c0.2,0,3.8,0,5.7,0c1.9,0,3-2.6,3-2.6C221.2,653.8,213.8,657.4,213.8,657.4z"></path>
	<path style="fill:#EB0900;" d="M208.4,654.1c0.4,0.2,2.4,0.5,2.4,0.5s4.1,2.1,2.6-0.5c0,0-1.9-1.2-2.6-0.9
		c-0.7,0.4-2.8-1.9-2.8-1.9s-1.1-0.9-1.2,0c-0.1,0.9-2.2,1.1-1,1.7C207.1,653.8,208,653.9,208.4,654.1z"></path>
	<path style="fill:#EB0900;" d="M203.1,659.2l-2.8-2.7c0,0,0.2-0.9,0.7-1.9c0.5-1,0.1-0.7,0-1.4c-0.1-0.8-1.2,0-1.2,0
		s-2.4-0.7-2.4-1.1s-3.1-1.6-3.5-1.7c-0.4-0.1-1.4-1.1-1.7-2.2s-1.2-1.7-2.4-1.7s0.9,3.9,0.9,3.9s-2.1,0.5-2-0.9s-1.4-2.3-1.4-2.3
		s-1.6-0.9-1.5-2.9c0.1-2-1.6-1.1-1.1-1.5c0.5-0.4-1.9-1.5-1.9-1.5s-1.7-1.4-2-0.9c-0.2,0.5,1.1,3.4,1.9,3.9
		c0.7,0.5,1.4,2.7,1.6,2.9c0.2,0.1,1.1,1.4,2,1.9c0.9,0.5-0.2,1.6,0,2c0.2,0.4,4.1,1.5,4.6,1.6c0.5,0.1,3.4,1.1,4.4,1.5
		c1,0.4,1.7,1.2,2,1.3c0.2,0.1-0.9,1.4-0.6,1.9c0.2,0.5,2.2,0.9,3.5,1.6c1.2,0.7,1.9,3.1,1.9,3.1s-2.4,1.4-2.9,1.4
		c-0.5,0-0.1,1,0.8,1c0.9,0,0.9,0.6,1,1.5c0.1,0.9,0.1,2-0.2,2.7c-0.4,0.7-1.5,0.7-1.5,0.7s-1.4,1-2.1,2c-0.7,1,0.9,0.1,2.7,0
		c1.8-0.1,3.3-2.4,3.3-2.4s-0.4-2.9-0.5-4.2c-0.1-1.2,1.8-2,2.2-3C205.1,660.8,203.1,659.2,203.1,659.2z"></path>
	<path style="fill:#EB0900;" d="M195.1,663c0,0,0.6,1.2,0.6,2.7c0,1.5,1.7,0,1.7,0c1-0.6-0.5-2.1,0-3.7c0.5-1.6-1.2-2.6-2-3.1
		c-0.7-0.4-0.7-0.9-1.2-2.4s-1.5-1.6-2.1-1.9c-0.6-0.3-1.2-0.5-2.5,0c-1.2,0.5-2.1-0.5-3.2-1.4c-1.1-0.9-2-1.3-3.1-2.2
		c-1.1-0.9-0.7-2.1-0.7-3.8c0-1.7-2.1-2.9-2.6-3.9c-0.5-1-1.7-1.4-1.7-2c0-0.6-2-2.1-2.1-1.7c-0.1,0.4-0.7,1.2-1.1,0.3
		s-0.9,0.3-1,1.4c-0.1,1.1,1.7,2,1.7,2s0.9,3,1.9,3.2s1.6,1.4,2.2,1.7c0.6,0.4,0.4,1.5,1.1,2.2c0.7,0.7-0.3,2.4,0,2.7
		c0.3,0.3,0.9,1.8,1.3,2.2c0.1,0.1,0.3,0.2,0.5,0.2l-2.5,0.9l-1.1-0.1c-1-0.2-2-0.6-2.5-0.5c-0.7,0.2-2.9-2-5.1-1.5l-4.5-3
		c0,0-3,3.7-2,3.7c1,0,5.7,4.7,5.7,4.7s-3.4,5.4,7.4,5.4l7.8,1l-4.5-6.3l2.8-4.1c0.4,0,0.6,0.1,0.6,0.1s0.9-0.8,1.8-0.6
		c0.9,0.2,1.2,1.1,2.3,1.1c1,0.1,0.7-1.3,1.7-1.1c1,0.2,1.1,0.3,1.2,1.1c0.1,0.8,0.7,1.9,0.7,1.9s1.1,1.8,1.8,2.2
		c0.6,0.4-1.1,0.2-1.8,0.1c-0.6-0.1-2.2-1.1-3-1.8c-0.7-0.7-1.5,0.1-2,0c-0.5-0.1,3.2,2.9,3.2,2.9s0.7,0.1,1.6,1.1
		C193.2,664,195.1,663,195.1,663z"></path>
	<path style="fill:#EB0900;" d="M192.8,668.9c-0.8,1-1.1,2.7,4.3,2.5C197.1,671.3,193.5,667.9,192.8,668.9z"></path>
	<path style="fill:#EB0900;" d="M257.2,654.5c-1.2-0.2-1.7,1.9-2.3,1.6c-0.6-0.3-0.7,1.3-0.7,1.3c-0.1,0.6,4.4,1.1,5.2,1.1
		C260.2,658.4,258.4,654.6,257.2,654.5z"></path>
</svg>